<svg width="369" height="48" viewBox="0 0 369 48" fill="none" xmlns="http://www.w3.org/2000/svg">
<mask id="mask0_68_2491" style="mask-type:alpha" maskUnits="userSpaceOnUse" x="0" y="0" width="48" height="48">
<rect width="48" height="48" fill="url(#paint0_linear_68_2491)"/>
</mask>
<g mask="url(#mask0_68_2491)">
<path d="M10 46V44C10 39.3667 10.9667 35.6083 12.9 32.725C14.8333 29.8417 17.5 26.9333 20.9 24C17.5 21.0667 14.8333 18.1583 12.9 15.275C10.9667 12.3917 10 8.63333 10 4V2H14V4C14 4.36667 14.0083 4.70833 14.025 5.025C14.0417 5.34167 14.0667 5.66667 14.1 6H33.9C33.9333 5.66667 33.9583 5.34167 33.975 5.025C33.9917 4.70833 34 4.36667 34 4V2H38V4C38 8.63333 37.0333 12.3917 35.1 15.275C33.1667 18.1583 30.5 21.0667 27.1 24C30.5 26.9333 33.1667 29.8417 35.1 32.725C37.0333 35.6083 38 39.3667 38 44V46H34V44C34 43.6333 33.9917 43.2917 33.975 42.975C33.9583 42.6583 33.9333 42.3333 33.9 42H14.1C14.0667 42.3333 14.0417 42.6583 14.025 42.975C14.0083 43.2917 14 43.6333 14 44V46H10ZM16.9 14H31.1C31.5333 13.3667 31.9083 12.7333 32.225 12.1C32.5417 11.4667 32.8333 10.7667 33.1 10H14.9C15.1667 10.7333 15.4583 11.425 15.775 12.075C16.0917 12.725 16.4667 13.3667 16.9 14ZM24 21.4C24.6667 20.8333 25.3167 20.2667 25.95 19.7C26.5833 19.1333 27.1833 18.5667 27.75 18H20.25C20.8167 18.5667 21.4167 19.1333 22.05 19.7C22.6833 20.2667 23.3333 20.8333 24 21.4ZM20.25 30H27.75C27.1833 29.4333 26.5833 28.8667 25.95 28.3C25.3167 27.7333 24.6667 27.1667 24 26.6C23.3333 27.1667 22.6833 27.7333 22.05 28.3C21.4167 28.8667 20.8167 29.4333 20.25 30ZM14.9 38H33.1C32.8333 37.2667 32.5417 36.575 32.225 35.925C31.9083 35.275 31.5333 34.6333 31.1 34H16.9C16.4667 34.6333 16.0917 35.2667 15.775 35.9C15.4583 36.5333 15.1667 37.2333 14.9 38Z" fill="url(#paint1_linear_68_2491)"/>
</g>
<path d="M77.312 12.968C77.0347 13.6933 76.8107 14.4507 76.64 15.24C76.4907 16.0293 76.3627 16.8827 76.256 17.8C75.7227 18.0133 75.1467 18.0347 74.528 17.864C74.72 16.3493 74.6773 15.208 74.4 14.44C74.144 13.6507 73.696 13.1173 73.056 12.84C72.4373 12.5413 71.6693 12.392 70.752 12.392C68.9387 12.392 67.36 12.84 66.016 13.736C64.6933 14.632 63.6373 15.8373 62.848 17.352C62.0587 18.8453 61.5573 20.5093 61.344 22.344C61.1733 23.9227 61.28 25.4053 61.664 26.792C62.048 28.1573 62.7413 29.256 63.744 30.088C64.7467 30.92 66.0907 31.336 67.776 31.336C68.9493 31.336 70.0693 31.176 71.136 30.856C72.224 30.5147 73.2373 30.056 74.176 29.48C74.3467 29.6293 74.464 29.8107 74.528 30.024C74.6133 30.2373 74.6667 30.4613 74.688 30.696C73.4507 31.592 72.1813 32.2533 70.88 32.68C69.6 33.0853 68.2773 33.288 66.912 33.288C64.7147 33.288 62.9013 32.808 61.472 31.848C60.064 30.888 59.0613 29.5973 58.464 27.976C57.8667 26.3333 57.696 24.5093 57.952 22.504C58.208 20.4987 58.7413 18.7813 59.552 17.352C60.384 15.9013 61.3867 14.7173 62.56 13.8C63.7547 12.8613 65.0347 12.1787 66.4 11.752C67.7867 11.304 69.1627 11.08 70.528 11.08C71.872 11.08 73.0667 11.24 74.112 11.56C75.1787 11.8587 76.2453 12.328 77.312 12.968ZM82.0725 33.288C80.7925 33.288 79.7472 32.9573 78.9365 32.296C78.1258 31.6133 77.5818 30.696 77.3045 29.544C77.0272 28.392 77.0272 27.0907 77.3045 25.64C77.6032 24.1253 78.1258 22.8027 78.8725 21.672C79.6192 20.5413 80.5365 19.656 81.6245 19.016C82.7125 18.376 83.8858 18.056 85.1445 18.056C86.4032 18.056 87.4272 18.376 88.2165 19.016C89.0272 19.6347 89.5818 20.4987 89.8805 21.608C90.1792 22.696 90.2005 23.9547 89.9445 25.384C89.6885 26.8987 89.1765 28.2533 88.4085 29.448C87.6618 30.6427 86.7445 31.5813 85.6565 32.264C84.5685 32.9467 83.3738 33.288 82.0725 33.288ZM82.4885 31.752C83.1285 31.752 83.7258 31.4853 84.2805 30.952C84.8565 30.4187 85.3578 29.704 85.7845 28.808C86.2325 27.8907 86.5632 26.856 86.7765 25.704C87.1178 23.9333 87.0965 22.472 86.7125 21.32C86.3285 20.168 85.6458 19.592 84.6645 19.592C83.7472 19.592 82.9045 20.1253 82.1365 21.192C81.3685 22.2373 80.8138 23.6133 80.4725 25.32C80.2378 26.5573 80.1632 27.6667 80.2485 28.648C80.3338 29.608 80.5685 30.3653 80.9525 30.92C81.3365 31.4747 81.8485 31.752 82.4885 31.752ZM110.587 33.288C109.904 33.288 109.424 33.1173 109.147 32.776C108.87 32.4133 108.752 31.8587 108.795 31.112C108.838 30.344 108.987 29.352 109.243 28.136L110.075 24.488C110.416 23.016 110.544 21.9707 110.459 21.352C110.395 20.712 110.128 20.392 109.659 20.392C109.168 20.392 108.539 20.712 107.771 21.352C107.024 21.9707 106.299 22.9093 105.595 24.168C104.891 25.4053 104.347 26.9627 103.963 28.84L103.163 33H100.283L101.755 25.8C102.075 24.3067 102.256 23.176 102.299 22.408C102.363 21.64 102.32 21.1173 102.171 20.84C102.043 20.5413 101.83 20.392 101.531 20.392C101.019 20.392 100.39 20.7227 99.643 21.384C98.9177 22.0453 98.2137 23.0053 97.531 24.264C96.8697 25.5013 96.3577 27.0267 95.995 28.84L95.195 33H92.283L94.043 23.688C94.235 22.6853 94.3203 21.9707 94.299 21.544C94.299 21.1173 94.1497 20.8507 93.851 20.744C93.5523 20.6373 93.0617 20.584 92.379 20.584C92.3577 20.392 92.3577 20.1893 92.379 19.976C92.4217 19.7413 92.4857 19.5387 92.571 19.368C92.9123 19.3253 93.3603 19.24 93.915 19.112C94.4697 18.9627 95.0243 18.792 95.579 18.6C96.1337 18.3867 96.5603 18.2053 96.859 18.056C97.2003 18.1627 97.4243 18.3867 97.531 18.728C97.6377 19.0693 97.6377 19.5387 97.531 20.136C97.3603 21.0533 97.179 21.8107 96.987 22.408C96.8163 23.0053 96.6137 23.5707 96.379 24.104H96.411L96.891 23.048C97.1043 22.5787 97.4137 22.0667 97.819 21.512C98.2457 20.936 98.7257 20.392 99.259 19.88C99.8137 19.3467 100.39 18.92 100.987 18.6C101.606 18.2587 102.203 18.088 102.779 18.088C103.248 18.088 103.686 18.216 104.091 18.472C104.496 18.7067 104.806 19.0907 105.019 19.624C105.232 20.1573 105.264 20.8613 105.115 21.736C105.051 22.0987 104.955 22.4827 104.827 22.888C104.72 23.2933 104.582 23.6987 104.411 24.104H104.443L104.923 23.048C105.136 22.5573 105.456 22.0347 105.883 21.48C106.331 20.904 106.843 20.36 107.419 19.848C107.995 19.3147 108.592 18.888 109.211 18.568C109.851 18.2267 110.47 18.056 111.067 18.056C112.134 18.056 112.859 18.6213 113.243 19.752C113.627 20.8827 113.574 22.4187 113.083 24.36L112.123 28.104C111.888 29 111.739 29.6613 111.675 30.088C111.611 30.5147 111.611 30.792 111.675 30.92C111.76 31.0267 111.899 31.08 112.091 31.08C112.39 31.08 112.667 31.0053 112.923 30.856C113.2 30.7067 113.531 30.4613 113.915 30.12C114.086 30.2693 114.214 30.4293 114.299 30.6C114.384 30.7493 114.438 30.9307 114.459 31.144C113.798 31.8907 113.158 32.4347 112.539 32.776C111.92 33.1173 111.27 33.288 110.587 33.288ZM115.596 40.84L118.604 23.752C118.796 22.7493 118.881 22.0347 118.86 21.608C118.86 21.1813 118.711 20.9147 118.412 20.808C118.135 20.7013 117.655 20.648 116.972 20.648C116.972 20.4133 116.983 20.1893 117.004 19.976C117.025 19.7627 117.079 19.5813 117.164 19.432C117.505 19.3893 117.953 19.304 118.508 19.176C119.084 19.0267 119.649 18.856 120.204 18.664C120.759 18.4507 121.185 18.2693 121.484 18.12C121.825 18.2267 122.049 18.4507 122.156 18.792C122.263 19.112 122.263 19.5707 122.156 20.168C122.092 20.5947 122.007 21.0107 121.9 21.416C121.815 21.8213 121.708 22.2267 121.58 22.632C121.452 23.0373 121.303 23.4427 121.132 23.848L120.748 24.808L119.436 32.168C119.543 32.744 119.585 33.3307 119.564 33.928C119.564 34.5467 119.457 35.4533 119.244 36.648L118.508 40.84H115.596ZM118.956 32.84L119.5 31.112C119.82 31.2827 120.183 31.4107 120.588 31.496C120.993 31.5813 121.409 31.624 121.836 31.624C123.159 31.624 124.193 31.1227 124.94 30.12C125.687 29.1173 126.22 27.8267 126.54 26.248C126.924 24.4347 127.02 23.048 126.828 22.088C126.657 21.1067 126.252 20.616 125.612 20.616C125.249 20.616 124.727 20.9573 124.044 21.64C123.383 22.3013 122.711 23.2613 122.028 24.52C121.367 25.7787 120.833 27.2933 120.428 29.064L119.82 31.624L118.316 31.4L120.076 24.584H120.908C121.313 23.496 121.847 22.4507 122.508 21.448C123.191 20.4453 123.948 19.624 124.78 18.984C125.633 18.344 126.508 18.024 127.404 18.024C127.937 18.024 128.396 18.152 128.78 18.408C129.164 18.664 129.463 19.0693 129.676 19.624C129.889 20.1787 129.996 20.8827 129.996 21.736C129.996 22.568 129.879 23.5813 129.644 24.776C129.324 26.4187 128.748 27.88 127.916 29.16C127.084 30.44 126.071 31.4427 124.876 32.168C123.703 32.8933 122.423 33.256 121.036 33.256C120.695 33.256 120.311 33.2133 119.884 33.128C119.479 33.0427 119.169 32.9467 118.956 32.84ZM134.534 33.288C133.808 33.288 133.264 33.064 132.902 32.616C132.56 32.168 132.347 31.5813 132.262 30.856C132.198 30.1093 132.23 29.2987 132.358 28.424C132.486 27.528 132.656 26.6533 132.87 25.8C133.19 24.52 133.414 23.528 133.542 22.824C133.691 22.0987 133.734 21.5867 133.67 21.288C133.606 20.968 133.435 20.776 133.158 20.712C132.88 20.6267 132.475 20.584 131.942 20.584C131.92 20.392 131.92 20.1893 131.942 19.976C131.963 19.7413 132.016 19.5387 132.102 19.368C132.422 19.3253 132.859 19.24 133.414 19.112C133.99 18.9627 134.555 18.792 135.11 18.6C135.664 18.3867 136.08 18.2053 136.358 18.056C136.592 18.2053 136.763 18.376 136.87 18.568C136.998 18.7387 137.04 19.0693 136.998 19.56C136.976 20.0507 136.848 20.808 136.614 21.832C136.4 22.8347 136.08 24.232 135.654 26.024C135.398 27.0907 135.238 27.9973 135.174 28.744C135.131 29.4693 135.195 30.0133 135.366 30.376C135.558 30.7387 135.835 30.92 136.198 30.92C136.603 30.92 137.158 30.6107 137.862 29.992C138.566 29.352 139.27 28.392 139.974 27.112C140.678 25.8107 141.211 24.1787 141.574 22.216L142.31 18.344H145.222L143.654 26.28C143.355 27.7733 143.152 28.8613 143.046 29.544C142.939 30.2267 142.918 30.6533 142.982 30.824C143.067 30.9947 143.227 31.08 143.462 31.08C143.846 31.08 144.368 30.7493 145.03 30.088C145.179 30.216 145.296 30.376 145.382 30.568C145.488 30.7387 145.574 30.92 145.638 31.112C145.126 31.7093 144.539 32.2213 143.878 32.648C143.238 33.0747 142.63 33.288 142.054 33.288C141.414 33.288 140.923 33.1387 140.582 32.84C140.24 32.52 140.027 32.0933 139.942 31.56C139.878 31.0267 139.91 30.408 140.038 29.704C140.08 29.448 140.144 29.192 140.23 28.936C140.315 28.68 140.422 28.424 140.55 28.168H140.486C140.23 28.7013 139.888 29.2667 139.462 29.864C139.056 30.44 138.587 30.9947 138.054 31.528C137.52 32.04 136.955 32.4667 136.358 32.808C135.76 33.128 135.152 33.288 134.534 33.288ZM151.552 33.288C150.656 33.288 149.962 33.064 149.472 32.616C149.002 32.1467 148.736 31.432 148.672 30.472C148.608 29.512 148.746 28.264 149.088 26.728L151.008 18.344C151.242 17.3627 151.434 16.4987 151.584 15.752C151.733 14.984 151.818 14.376 151.84 13.928C152.266 13.864 152.714 13.768 153.184 13.64C153.674 13.4907 154.069 13.3307 154.368 13.16C154.538 13.2453 154.656 13.3947 154.72 13.608C154.784 13.8213 154.784 14.1947 154.72 14.728C154.656 15.24 154.496 16.0293 154.24 17.096L152.032 26.504C151.776 27.6773 151.637 28.616 151.616 29.32C151.616 30.024 151.722 30.536 151.936 30.856C152.149 31.1547 152.426 31.304 152.768 31.304C153.13 31.304 153.525 31.1653 153.952 30.888C154.4 30.6107 154.794 30.2693 155.135 29.864C155.306 29.9493 155.456 30.0987 155.584 30.312C155.712 30.504 155.786 30.696 155.808 30.888C155.53 31.2507 155.157 31.624 154.688 32.008C154.24 32.3707 153.749 32.68 153.216 32.936C152.682 33.1707 152.128 33.288 151.552 33.288ZM150.88 20.136C150.474 20.0933 150.037 20.0507 149.568 20.008C149.098 19.944 148.65 19.912 148.224 19.912C148.224 19.6773 148.256 19.4533 148.32 19.24C148.384 19.0053 148.469 18.8133 148.576 18.664H151.136L150.88 20.136ZM153.312 20.168L153.568 18.664H157.504C157.504 18.8773 157.482 19.1013 157.44 19.336C157.418 19.5493 157.365 19.7413 157.28 19.912C156.341 19.912 155.552 19.944 154.911 20.008C154.272 20.0507 153.738 20.104 153.312 20.168ZM170.056 18.056C170.184 18.0987 170.291 18.2053 170.376 18.376C170.461 18.5253 170.483 18.8133 170.44 19.24C170.419 19.6453 170.312 20.2747 170.12 21.128L168.52 28.296C168.285 29.4693 168.168 30.2267 168.168 30.568C168.189 30.9093 168.371 31.08 168.712 31.08C168.968 31.08 169.224 31.0053 169.48 30.856C169.757 30.7067 170.099 30.4613 170.504 30.12C170.653 30.2693 170.771 30.4293 170.856 30.6C170.941 30.7493 171.016 30.92 171.08 31.112C170.547 31.7093 169.971 32.2213 169.352 32.648C168.733 33.0747 168.072 33.288 167.368 33.288C166.771 33.288 166.323 33.1387 166.024 32.84C165.725 32.5413 165.523 32.168 165.416 31.72C165.331 31.272 165.32 30.8133 165.384 30.344C165.448 29.8533 165.544 29.4267 165.672 29.064C165.757 28.8507 165.864 28.5733 165.992 28.232C166.141 27.8907 166.291 27.5493 166.44 27.208C166.589 26.8667 166.707 26.6107 166.792 26.44L167.944 21.928L168.04 18.344C168.381 18.3653 168.744 18.3547 169.128 18.312C169.512 18.248 169.821 18.1627 170.056 18.056ZM168.52 18.472L167.976 20.2C167.656 20.0293 167.293 19.9013 166.888 19.816C166.483 19.7307 166.067 19.688 165.64 19.688C164.339 19.688 163.304 20.1893 162.536 21.192C161.789 22.1947 161.256 23.4853 160.936 25.064C160.552 26.8773 160.445 28.2747 160.616 29.256C160.808 30.216 161.224 30.696 161.864 30.696C162.248 30.696 162.771 30.3653 163.432 29.704C164.093 29.0213 164.755 28.0507 165.416 26.792C166.099 25.512 166.643 23.9973 167.048 22.248L167.656 19.688L169.16 19.912L167.4 26.728H166.568C166.184 27.7947 165.651 28.84 164.968 29.864C164.285 30.8667 163.517 31.688 162.664 32.328C161.832 32.968 160.968 33.288 160.072 33.288C159.539 33.288 159.08 33.16 158.696 32.904C158.312 32.648 158.013 32.2427 157.8 31.688C157.587 31.1333 157.48 30.4293 157.48 29.576C157.48 28.7227 157.597 27.7093 157.832 26.536C158.173 24.8933 158.749 23.432 159.56 22.152C160.392 20.872 161.395 19.8693 162.568 19.144C163.763 18.4187 165.053 18.056 166.44 18.056C166.803 18.056 167.187 18.0987 167.592 18.184C167.997 18.2693 168.307 18.3653 168.52 18.472ZM176.541 33.288C175.581 33.288 174.824 33.064 174.269 32.616C173.714 32.1467 173.32 31.528 173.085 30.76C172.872 29.992 172.776 29.1493 172.797 28.232C172.84 27.2933 172.968 26.3547 173.181 25.416C173.416 24.3707 173.746 23.4 174.173 22.504C174.6 21.608 175.112 20.8293 175.709 20.168C176.328 19.5067 177.032 18.9947 177.821 18.632C178.632 18.248 179.549 18.056 180.573 18.056C181.149 18.056 181.704 18.12 182.237 18.248C182.77 18.376 183.208 18.568 183.549 18.824C183.378 19.3573 183.229 19.9227 183.101 20.52C182.973 21.1173 182.877 21.704 182.813 22.28C182.408 22.472 181.896 22.5147 181.277 22.408C181.362 21.3413 181.266 20.616 180.989 20.232C180.733 19.8267 180.317 19.624 179.741 19.624C178.973 19.624 178.333 19.8907 177.821 20.424C177.33 20.9573 176.936 21.64 176.637 22.472C176.36 23.2827 176.146 24.1253 175.997 25C175.89 25.6613 175.816 26.3547 175.773 27.08C175.73 27.784 175.762 28.4453 175.869 29.064C175.997 29.6613 176.232 30.152 176.573 30.536C176.936 30.8987 177.448 31.08 178.109 31.08C178.728 31.08 179.336 30.9093 179.933 30.568C180.53 30.2267 181.085 29.7787 181.597 29.224C181.768 29.3307 181.896 29.4587 181.981 29.608C182.088 29.7573 182.184 29.928 182.269 30.12C181.416 31.2293 180.477 32.04 179.453 32.552C178.45 33.0427 177.48 33.288 176.541 33.288ZM173.885 40.744C173.842 40.5947 173.821 40.424 173.821 40.232C173.821 40.0613 173.832 39.8907 173.853 39.72C174.642 39.72 175.282 39.592 175.773 39.336C176.285 39.08 176.594 38.6747 176.701 38.12C176.808 37.5013 176.69 37.032 176.349 36.712C176.029 36.392 175.57 36.232 174.973 36.232C174.632 35.9333 174.525 35.528 174.653 35.016L176.733 32.488H178.493L176.637 34.76C177.426 34.9093 177.992 35.2507 178.333 35.784C178.696 36.3173 178.781 37.0747 178.589 38.056C178.397 38.9733 177.864 39.656 176.989 40.104C176.136 40.552 175.101 40.7653 173.885 40.744ZM196.837 18.056C196.965 18.0987 197.072 18.2053 197.157 18.376C197.243 18.5253 197.264 18.8133 197.221 19.24C197.2 19.6453 197.093 20.2747 196.901 21.128L195.301 28.296C195.067 29.4693 194.949 30.2267 194.949 30.568C194.971 30.9093 195.152 31.08 195.493 31.08C195.749 31.08 196.005 31.0053 196.261 30.856C196.539 30.7067 196.88 30.4613 197.285 30.12C197.435 30.2693 197.552 30.4293 197.637 30.6C197.723 30.7493 197.797 30.92 197.861 31.112C197.328 31.7093 196.752 32.2213 196.133 32.648C195.515 33.0747 194.853 33.288 194.149 33.288C193.552 33.288 193.104 33.1387 192.805 32.84C192.507 32.5413 192.304 32.168 192.197 31.72C192.112 31.272 192.101 30.8133 192.165 30.344C192.229 29.8533 192.325 29.4267 192.453 29.064C192.539 28.8507 192.645 28.5733 192.773 28.232C192.923 27.8907 193.072 27.5493 193.221 27.208C193.371 26.8667 193.488 26.6107 193.573 26.44L194.725 21.928L194.821 18.344C195.163 18.3653 195.525 18.3547 195.909 18.312C196.293 18.248 196.603 18.1627 196.837 18.056ZM195.301 18.472L194.757 20.2C194.437 20.0293 194.075 19.9013 193.669 19.816C193.264 19.7307 192.848 19.688 192.421 19.688C191.12 19.688 190.085 20.1893 189.317 21.192C188.571 22.1947 188.037 23.4853 187.717 25.064C187.333 26.8773 187.227 28.2747 187.397 29.256C187.589 30.216 188.005 30.696 188.645 30.696C189.029 30.696 189.552 30.3653 190.213 29.704C190.875 29.0213 191.536 28.0507 192.197 26.792C192.88 25.512 193.424 23.9973 193.829 22.248L194.437 19.688L195.941 19.912L194.181 26.728H193.349C192.965 27.7947 192.432 28.84 191.749 29.864C191.067 30.8667 190.299 31.688 189.445 32.328C188.613 32.968 187.749 33.288 186.853 33.288C186.32 33.288 185.861 33.16 185.477 32.904C185.093 32.648 184.795 32.2427 184.581 31.688C184.368 31.1333 184.261 30.4293 184.261 29.576C184.261 28.7227 184.379 27.7093 184.613 26.536C184.955 24.8933 185.531 23.432 186.341 22.152C187.173 20.872 188.176 19.8693 189.349 19.144C190.544 18.4187 191.835 18.056 193.221 18.056C193.584 18.056 193.968 18.0987 194.373 18.184C194.779 18.2693 195.088 18.3653 195.301 18.472ZM195.749 15.272C195.387 15.272 195.035 15.208 194.693 15.08C194.352 14.9307 194.021 14.7707 193.701 14.6C193.381 14.408 193.061 14.248 192.741 14.12C192.421 13.9707 192.08 13.896 191.717 13.896C191.248 13.896 190.789 13.9813 190.341 14.152C189.893 14.3227 189.392 14.6427 188.837 15.112C188.731 15.0267 188.645 14.92 188.581 14.792C188.517 14.6427 188.496 14.4933 188.517 14.344C189.328 13.2987 190.053 12.5947 190.693 12.232C191.355 11.848 191.931 11.656 192.421 11.656C192.805 11.656 193.168 11.7307 193.509 11.88C193.851 12.008 194.181 12.1573 194.501 12.328C194.821 12.4987 195.12 12.6587 195.397 12.808C195.696 12.936 195.995 13 196.293 13C196.72 13 197.125 12.904 197.509 12.712C197.893 12.4987 198.267 12.2107 198.629 11.848C198.736 11.8907 198.843 11.9653 198.949 12.072C199.056 12.1787 199.141 12.3173 199.205 12.488C198.48 13.5973 197.84 14.344 197.285 14.728C196.731 15.0907 196.219 15.272 195.749 15.272ZM204.666 33.288C203.386 33.288 202.341 32.9573 201.53 32.296C200.72 31.6133 200.176 30.696 199.898 29.544C199.621 28.392 199.621 27.0907 199.898 25.64C200.197 24.1253 200.72 22.8027 201.466 21.672C202.213 20.5413 203.13 19.656 204.218 19.016C205.306 18.376 206.48 18.056 207.738 18.056C208.997 18.056 210.021 18.376 210.81 19.016C211.621 19.6347 212.176 20.4987 212.474 21.608C212.773 22.696 212.794 23.9547 212.538 25.384C212.282 26.8987 211.77 28.2533 211.002 29.448C210.256 30.6427 209.338 31.5813 208.25 32.264C207.162 32.9467 205.968 33.288 204.666 33.288ZM205.082 31.752C205.722 31.752 206.32 31.4853 206.874 30.952C207.45 30.4187 207.952 29.704 208.378 28.808C208.826 27.8907 209.157 26.856 209.37 25.704C209.712 23.9333 209.69 22.472 209.306 21.32C208.922 20.168 208.24 19.592 207.258 19.592C206.341 19.592 205.498 20.1253 204.73 21.192C203.962 22.2373 203.408 23.6133 203.066 25.32C202.832 26.5573 202.757 27.6667 202.842 28.648C202.928 29.608 203.162 30.3653 203.546 30.92C203.93 31.4747 204.442 31.752 205.082 31.752ZM225.939 28.744C225.789 29.6187 225.747 30.2693 225.811 30.696C225.896 31.1013 226.131 31.368 226.515 31.496C226.92 31.6027 227.507 31.656 228.275 31.656C229.661 31.656 230.845 31.2933 231.827 30.568C232.808 29.8427 233.405 28.8933 233.619 27.72C234.003 25.8 233.747 24.4347 232.851 23.624C231.976 22.8133 230.301 22.408 227.827 22.408H226.643L226.899 20.968H228.211C229.939 20.968 231.283 20.6053 232.243 19.88C233.224 19.1333 233.832 18.152 234.067 16.936C234.365 15.4853 234.141 14.408 233.395 13.704C232.669 13 231.592 12.648 230.163 12.648C229.907 12.648 229.619 12.6693 229.299 12.712C229 12.7547 228.659 12.8293 228.275 12.936L228.755 12.424L225.939 28.744ZM226.835 11.368C227.603 11.368 228.371 11.3573 229.139 11.336C229.907 11.2933 230.653 11.272 231.379 11.272C232.872 11.272 234.109 11.4533 235.091 11.816C236.072 12.1573 236.755 12.7227 237.139 13.512C237.544 14.3013 237.629 15.336 237.395 16.616C237.181 17.8107 236.573 18.8453 235.571 19.72C234.568 20.5733 233.352 21.096 231.923 21.288C233.949 21.3947 235.421 21.96 236.339 22.984C237.256 24.008 237.512 25.5333 237.107 27.56C236.893 28.648 236.413 29.608 235.667 30.44C234.92 31.2507 233.949 31.88 232.755 32.328C231.56 32.776 230.173 33 228.595 33C227.784 33 226.867 33 225.843 33C224.84 33 223.827 33 222.803 33C221.8 33.0213 220.872 33.0533 220.019 33.096C220.04 32.7973 220.072 32.5413 220.115 32.328C220.157 32.0933 220.211 31.8907 220.275 31.72C220.936 31.6133 221.427 31.464 221.747 31.272C222.088 31.08 222.344 30.7707 222.515 30.344C222.685 29.896 222.835 29.256 222.963 28.424L225.267 15.272C225.395 14.5467 225.405 14.0133 225.299 13.672C225.213 13.3093 225.011 13.064 224.691 12.936C224.371 12.7867 223.933 12.6907 223.379 12.648C223.336 12.4133 223.304 12.1893 223.283 11.976C223.283 11.7627 223.293 11.528 223.315 11.272C224.061 11.3147 224.691 11.3467 225.203 11.368C225.715 11.368 226.259 11.368 226.835 11.368ZM241.638 33.288C240.934 33.288 240.411 33.096 240.07 32.712C239.728 32.328 239.547 31.7947 239.526 31.112C239.504 30.408 239.622 29.5973 239.878 28.68L241.19 24.072C241.51 22.984 241.691 22.1947 241.734 21.704C241.798 21.2133 241.68 20.904 241.382 20.776C241.104 20.648 240.614 20.584 239.91 20.584C239.888 20.3493 239.888 20.136 239.91 19.944C239.952 19.7307 240.016 19.5387 240.102 19.368C240.443 19.3253 240.848 19.2293 241.318 19.08C241.808 18.9307 242.278 18.76 242.726 18.568C243.174 18.376 243.526 18.2053 243.782 18.056C244.443 18.3333 244.838 18.8027 244.966 19.464C245.115 20.104 245.008 21.0853 244.646 22.408L242.886 28.584C242.587 29.6293 242.459 30.3013 242.502 30.6C242.566 30.8987 242.747 31.048 243.046 31.048C243.259 31.048 243.504 30.9733 243.782 30.824C244.08 30.6747 244.39 30.44 244.71 30.12C244.88 30.2267 245.008 30.3653 245.094 30.536C245.2 30.7067 245.264 30.9093 245.286 31.144C244.667 31.8053 244.048 32.328 243.43 32.712C242.832 33.096 242.235 33.288 241.638 33.288ZM244.422 14.536C243.91 14.536 243.526 14.3653 243.27 14.024C243.035 13.6613 242.971 13.2027 243.078 12.648C243.206 12.0507 243.462 11.5813 243.846 11.24C244.23 10.8773 244.667 10.696 245.158 10.696C245.691 10.696 246.086 10.8773 246.342 11.24C246.598 11.5813 246.662 12.0507 246.534 12.648C246.427 13.2027 246.182 13.6613 245.798 14.024C245.414 14.3653 244.955 14.536 244.422 14.536ZM252.104 33.288C250.824 33.288 249.778 32.9573 248.968 32.296C248.157 31.6133 247.613 30.696 247.336 29.544C247.058 28.392 247.058 27.0907 247.336 25.64C247.634 24.1253 248.157 22.8027 248.904 21.672C249.65 20.5413 250.568 19.656 251.656 19.016C252.744 18.376 253.917 18.056 255.176 18.056C256.434 18.056 257.458 18.376 258.248 19.016C259.058 19.6347 259.613 20.4987 259.912 21.608C260.21 22.696 260.232 23.9547 259.976 25.384C259.72 26.8987 259.208 28.2533 258.44 29.448C257.693 30.6427 256.776 31.5813 255.688 32.264C254.6 32.9467 253.405 33.288 252.104 33.288ZM252.52 31.752C253.16 31.752 253.757 31.4853 254.312 30.952C254.888 30.4187 255.389 29.704 255.816 28.808C256.264 27.8907 256.594 26.856 256.808 25.704C257.149 23.9333 257.128 22.472 256.744 21.32C256.36 20.168 255.677 19.592 254.696 19.592C253.778 19.592 252.936 20.1253 252.168 21.192C251.4 22.2373 250.845 23.6133 250.504 25.32C250.269 26.5573 250.194 27.6667 250.28 28.648C250.365 29.608 250.6 30.3653 250.984 30.92C251.368 31.4747 251.88 31.752 252.52 31.752ZM262.25 33L264.01 23.688C264.202 22.6853 264.298 21.9707 264.298 21.544C264.298 21.1173 264.149 20.8507 263.85 20.744C263.552 20.6373 263.061 20.584 262.378 20.584C262.378 20.3493 262.389 20.1253 262.41 19.912C262.432 19.6987 262.485 19.5173 262.57 19.368C262.912 19.3253 263.36 19.24 263.914 19.112C264.49 18.9627 265.056 18.792 265.61 18.6C266.186 18.3867 266.624 18.2053 266.922 18.056C267.264 18.1627 267.488 18.3867 267.594 18.728C267.701 19.0693 267.701 19.5387 267.594 20.136C267.424 21.0533 267.242 21.8107 267.05 22.408C266.858 23.0053 266.645 23.5707 266.41 24.104L265.962 28.84L265.162 33H262.25ZM272.874 18.056C273.216 18.056 273.578 18.1413 273.962 18.312C274.346 18.4827 274.677 18.792 274.954 19.24C275.232 19.6667 275.402 20.2853 275.466 21.096C275.53 21.9067 275.413 22.9413 275.114 24.2L274.186 28.104C273.973 29.064 273.824 29.7573 273.738 30.184C273.653 30.5893 273.642 30.8453 273.706 30.952C273.77 31.0587 273.888 31.112 274.058 31.112C274.293 31.112 274.581 31.016 274.922 30.824C275.285 30.6107 275.594 30.376 275.85 30.12C276.021 30.2693 276.149 30.4293 276.234 30.6C276.32 30.7493 276.384 30.9307 276.426 31.144C275.722 31.8693 275.072 32.4133 274.474 32.776C273.898 33.1173 273.322 33.288 272.746 33.288C271.914 33.288 271.349 33.0853 271.05 32.68C270.773 32.2533 270.677 31.656 270.762 30.888C270.848 30.0987 271.008 29.1813 271.242 28.136L272.106 24.328C272.362 23.24 272.48 22.4187 272.458 21.864C272.458 21.288 272.373 20.904 272.202 20.712C272.053 20.4987 271.861 20.392 271.626 20.392C271.242 20.392 270.773 20.5947 270.218 21C269.685 21.4053 269.13 21.9813 268.554 22.728C268 23.4747 267.488 24.3707 267.018 25.416C266.549 26.44 266.197 27.5813 265.962 28.84L265.706 25.64L266.922 23.048C267.178 22.536 267.52 21.992 267.946 21.416C268.394 20.8187 268.885 20.2747 269.418 19.784C269.973 19.272 270.549 18.856 271.146 18.536C271.744 18.216 272.32 18.056 272.874 18.056ZM284.573 18.056C285.362 18.056 286.13 18.152 286.877 18.344C287.623 18.536 288.231 18.7813 288.701 19.08C288.338 20.168 288.135 21.32 288.093 22.536C287.879 22.6427 287.634 22.7173 287.357 22.76C287.101 22.8027 286.823 22.824 286.525 22.824C286.525 21.5653 286.343 20.712 285.981 20.264C285.618 19.7947 285.074 19.56 284.349 19.56C283.73 19.56 283.25 19.688 282.909 19.944C282.589 20.1787 282.386 20.4773 282.301 20.84C282.194 21.288 282.258 21.7147 282.493 22.12C282.727 22.5253 283.058 22.9307 283.485 23.336C283.911 23.72 284.359 24.1253 284.829 24.552C285.319 24.9787 285.767 25.448 286.173 25.96C286.578 26.4507 286.877 27.016 287.069 27.656C287.282 28.296 287.303 29.0213 287.133 29.832C286.983 30.6 286.685 31.24 286.237 31.752C285.789 32.264 285.234 32.648 284.573 32.904C283.911 33.16 283.143 33.288 282.269 33.288C281.287 33.288 280.413 33.16 279.645 32.904C278.877 32.6267 278.269 32.3387 277.821 32.04C278.013 31.3573 278.141 30.728 278.205 30.152C278.29 29.576 278.343 29.0427 278.365 28.552C278.855 28.3173 279.367 28.2213 279.901 28.264C279.858 29.3093 280.018 30.1627 280.381 30.824C280.743 31.4853 281.437 31.816 282.461 31.816C283.101 31.816 283.591 31.6987 283.933 31.464C284.295 31.208 284.519 30.888 284.605 30.504C284.711 29.9707 284.594 29.4693 284.253 29C283.933 28.5093 283.495 28.0187 282.941 27.528C282.407 27.016 281.874 26.472 281.341 25.896C280.829 25.2987 280.423 24.6373 280.125 23.912C279.826 23.1867 279.773 22.3547 279.965 21.416C280.114 20.6907 280.381 20.0827 280.765 19.592C281.17 19.1013 281.693 18.728 282.333 18.472C282.973 18.1947 283.719 18.056 284.573 18.056ZM289.346 40.84L292.354 23.752C292.546 22.7493 292.631 22.0347 292.61 21.608C292.61 21.1813 292.461 20.9147 292.162 20.808C291.885 20.7013 291.405 20.648 290.722 20.648C290.722 20.4133 290.733 20.1893 290.754 19.976C290.775 19.7627 290.829 19.5813 290.914 19.432C291.255 19.3893 291.703 19.304 292.258 19.176C292.834 19.0267 293.399 18.856 293.954 18.664C294.509 18.4507 294.935 18.2693 295.234 18.12C295.575 18.2267 295.799 18.4507 295.906 18.792C296.013 19.112 296.013 19.5707 295.906 20.168C295.842 20.5947 295.757 21.0107 295.65 21.416C295.565 21.8213 295.458 22.2267 295.33 22.632C295.202 23.0373 295.053 23.4427 294.882 23.848L294.498 24.808L293.186 32.168C293.293 32.744 293.335 33.3307 293.314 33.928C293.314 34.5467 293.207 35.4533 292.994 36.648L292.258 40.84H289.346ZM292.706 32.84L293.25 31.112C293.57 31.2827 293.933 31.4107 294.338 31.496C294.743 31.5813 295.159 31.624 295.586 31.624C296.909 31.624 297.943 31.1227 298.69 30.12C299.437 29.1173 299.97 27.8267 300.29 26.248C300.674 24.4347 300.77 23.048 300.578 22.088C300.407 21.1067 300.002 20.616 299.362 20.616C298.999 20.616 298.477 20.9573 297.794 21.64C297.133 22.3013 296.461 23.2613 295.778 24.52C295.117 25.7787 294.583 27.2933 294.178 29.064L293.57 31.624L292.066 31.4L293.826 24.584H294.658C295.063 23.496 295.597 22.4507 296.258 21.448C296.941 20.4453 297.698 19.624 298.53 18.984C299.383 18.344 300.258 18.024 301.154 18.024C301.687 18.024 302.146 18.152 302.53 18.408C302.914 18.664 303.213 19.0693 303.426 19.624C303.639 20.1787 303.746 20.8827 303.746 21.736C303.746 22.568 303.629 23.5813 303.394 24.776C303.074 26.4187 302.498 27.88 301.666 29.16C300.834 30.44 299.821 31.4427 298.626 32.168C297.453 32.8933 296.173 33.256 294.786 33.256C294.445 33.256 294.061 33.2133 293.634 33.128C293.229 33.0427 292.919 32.9467 292.706 32.84ZM307.388 33.288C306.684 33.288 306.161 33.096 305.82 32.712C305.478 32.328 305.297 31.7947 305.276 31.112C305.254 30.408 305.372 29.5973 305.628 28.68L306.94 24.072C307.26 22.984 307.441 22.1947 307.484 21.704C307.548 21.2133 307.43 20.904 307.132 20.776C306.854 20.648 306.364 20.584 305.66 20.584C305.638 20.3493 305.638 20.136 305.66 19.944C305.702 19.7307 305.766 19.5387 305.852 19.368C306.193 19.3253 306.598 19.2293 307.068 19.08C307.558 18.9307 308.028 18.76 308.476 18.568C308.924 18.376 309.276 18.2053 309.532 18.056C310.193 18.3333 310.588 18.8027 310.716 19.464C310.865 20.104 310.758 21.0853 310.396 22.408L308.636 28.584C308.337 29.6293 308.209 30.3013 308.252 30.6C308.316 30.8987 308.497 31.048 308.796 31.048C309.009 31.048 309.254 30.9733 309.532 30.824C309.83 30.6747 310.14 30.44 310.46 30.12C310.63 30.2267 310.758 30.3653 310.844 30.536C310.95 30.7067 311.014 30.9093 311.036 31.144C310.417 31.8053 309.798 32.328 309.18 32.712C308.582 33.096 307.985 33.288 307.388 33.288ZM310.172 14.536C309.66 14.536 309.276 14.3653 309.02 14.024C308.785 13.6613 308.721 13.2027 308.828 12.648C308.956 12.0507 309.212 11.5813 309.596 11.24C309.98 10.8773 310.417 10.696 310.908 10.696C311.441 10.696 311.836 10.8773 312.092 11.24C312.348 11.5813 312.412 12.0507 312.284 12.648C312.177 13.2027 311.932 13.6613 311.548 14.024C311.164 14.3653 310.705 14.536 310.172 14.536ZM318.11 18.056C318.451 18.1627 318.664 18.3867 318.75 18.728C318.856 19.048 318.856 19.5067 318.75 20.104C318.664 20.6373 318.494 21.256 318.238 21.96C318.003 22.664 317.704 23.4533 317.342 24.328H317.406L317.95 23.144C318.44 22.1413 318.91 21.256 319.358 20.488C319.827 19.72 320.318 19.1227 320.83 18.696C321.342 18.2693 321.907 18.056 322.526 18.056C323.144 18.056 323.688 18.248 324.158 18.632C323.966 19.2293 323.806 19.848 323.678 20.488C323.55 21.128 323.454 21.7467 323.39 22.344C323.198 22.4293 322.963 22.504 322.686 22.568C322.43 22.6107 322.142 22.6213 321.822 22.6C321.864 21.8533 321.854 21.3627 321.79 21.128C321.726 20.872 321.619 20.744 321.47 20.744C321.256 20.744 320.947 20.9573 320.542 21.384C320.158 21.7893 319.699 22.4933 319.166 23.496C318.824 24.1573 318.408 25.096 317.918 26.312C317.448 27.5067 317.086 28.7867 316.83 30.152L316.286 33H313.342L315.134 23.688C315.326 22.6853 315.422 21.9707 315.422 21.544C315.443 21.1173 315.304 20.8507 315.006 20.744C314.728 20.6373 314.248 20.584 313.566 20.584C313.566 20.3493 313.576 20.1253 313.598 19.912C313.64 19.6987 313.704 19.5173 313.79 19.368C314.131 19.3253 314.579 19.24 315.134 19.112C315.71 18.9627 316.275 18.792 316.83 18.6C317.384 18.3867 317.811 18.2053 318.11 18.056ZM336.181 18.056C336.309 18.0987 336.416 18.2053 336.501 18.376C336.586 18.5253 336.608 18.8133 336.565 19.24C336.544 19.6453 336.437 20.2747 336.245 21.128L334.645 28.296C334.41 29.4693 334.293 30.2267 334.293 30.568C334.314 30.9093 334.496 31.08 334.837 31.08C335.093 31.08 335.349 31.0053 335.605 30.856C335.882 30.7067 336.224 30.4613 336.629 30.12C336.778 30.2693 336.896 30.4293 336.981 30.6C337.066 30.7493 337.141 30.92 337.205 31.112C336.672 31.7093 336.096 32.2213 335.477 32.648C334.858 33.0747 334.197 33.288 333.493 33.288C332.896 33.288 332.448 33.1387 332.149 32.84C331.85 32.5413 331.648 32.168 331.541 31.72C331.456 31.272 331.445 30.8133 331.509 30.344C331.573 29.8533 331.669 29.4267 331.797 29.064C331.882 28.8507 331.989 28.5733 332.117 28.232C332.266 27.8907 332.416 27.5493 332.565 27.208C332.714 26.8667 332.832 26.6107 332.917 26.44L334.069 21.928L334.165 18.344C334.506 18.3653 334.869 18.3547 335.253 18.312C335.637 18.248 335.946 18.1627 336.181 18.056ZM334.645 18.472L334.101 20.2C333.781 20.0293 333.418 19.9013 333.013 19.816C332.608 19.7307 332.192 19.688 331.765 19.688C330.464 19.688 329.429 20.1893 328.661 21.192C327.914 22.1947 327.381 23.4853 327.061 25.064C326.677 26.8773 326.57 28.2747 326.741 29.256C326.933 30.216 327.349 30.696 327.989 30.696C328.373 30.696 328.896 30.3653 329.557 29.704C330.218 29.0213 330.88 28.0507 331.541 26.792C332.224 25.512 332.768 23.9973 333.173 22.248L333.781 19.688L335.285 19.912L333.525 26.728H332.693C332.309 27.7947 331.776 28.84 331.093 29.864C330.41 30.8667 329.642 31.688 328.789 32.328C327.957 32.968 327.093 33.288 326.197 33.288C325.664 33.288 325.205 33.16 324.821 32.904C324.437 32.648 324.138 32.2427 323.925 31.688C323.712 31.1333 323.605 30.4293 323.605 29.576C323.605 28.7227 323.722 27.7093 323.957 26.536C324.298 24.8933 324.874 23.432 325.685 22.152C326.517 20.872 327.52 19.8693 328.693 19.144C329.888 18.4187 331.178 18.056 332.565 18.056C332.928 18.056 333.312 18.0987 333.717 18.184C334.122 18.2693 334.432 18.3653 334.645 18.472ZM348.81 33.288C348.063 33.288 347.53 33.0747 347.21 32.648C346.911 32.2 346.762 31.656 346.762 31.016C346.762 30.376 346.847 29.7573 347.018 29.16C347.082 28.9253 347.167 28.6373 347.274 28.296C347.402 27.9547 347.53 27.624 347.658 27.304C347.786 26.984 347.893 26.7493 347.978 26.6L349.066 20.008C348.981 19.4747 348.959 18.8987 349.002 18.28C349.066 17.64 349.173 16.8507 349.322 15.912C349.493 14.8667 349.578 14.1307 349.578 13.704C349.578 13.2773 349.429 13.0213 349.13 12.936C348.853 12.8507 348.373 12.808 347.69 12.808C347.669 12.5947 347.669 12.3813 347.69 12.168C347.733 11.9333 347.797 11.7413 347.882 11.592C348.223 11.5493 348.671 11.464 349.226 11.336C349.802 11.1867 350.367 11.016 350.922 10.824C351.477 10.6107 351.903 10.4293 352.202 10.28C352.543 10.3867 352.767 10.6107 352.874 10.952C352.981 11.272 352.981 11.7307 352.874 12.328L350.25 27.336C350.058 28.4667 349.919 29.2987 349.834 29.832C349.77 30.3653 349.77 30.7067 349.834 30.856C349.919 31.0053 350.047 31.08 350.218 31.08C350.474 31.08 350.741 31.0053 351.018 30.856C351.295 30.7067 351.637 30.4613 352.042 30.12C352.191 30.2693 352.309 30.4293 352.394 30.6C352.479 30.7493 352.554 30.92 352.618 31.112C352.085 31.7093 351.498 32.2213 350.858 32.648C350.218 33.0747 349.535 33.288 348.81 33.288ZM349.77 18.472L349.226 20.2C348.906 20.0293 348.543 19.9013 348.138 19.816C347.733 19.7307 347.317 19.688 346.89 19.688C345.589 19.688 344.554 20.1893 343.786 21.192C343.039 22.1947 342.506 23.4853 342.186 25.064C341.802 26.8773 341.695 28.2747 341.866 29.256C342.058 30.216 342.474 30.696 343.114 30.696C343.498 30.696 344.021 30.3653 344.682 29.704C345.343 29.0213 346.005 28.0507 346.666 26.792C347.349 25.512 347.893 23.9973 348.298 22.248L348.906 19.688L350.41 19.912L348.65 26.728H347.818C347.434 27.7947 346.901 28.84 346.218 29.864C345.535 30.8667 344.767 31.688 343.914 32.328C343.082 32.968 342.218 33.288 341.322 33.288C340.789 33.288 340.33 33.16 339.946 32.904C339.562 32.648 339.263 32.2427 339.05 31.688C338.837 31.1333 338.73 30.4293 338.73 29.576C338.73 28.7227 338.847 27.7093 339.082 26.536C339.423 24.8933 339.999 23.432 340.81 22.152C341.642 20.872 342.645 19.8693 343.818 19.144C345.013 18.4187 346.303 18.056 347.69 18.056C348.053 18.056 348.437 18.0987 348.842 18.184C349.247 18.2693 349.557 18.3653 349.77 18.472ZM366.744 18.056C366.872 18.0987 366.978 18.2053 367.064 18.376C367.149 18.5253 367.17 18.8133 367.128 19.24C367.106 19.6453 367 20.2747 366.808 21.128L365.208 28.296C364.973 29.4693 364.856 30.2267 364.856 30.568C364.877 30.9093 365.058 31.08 365.4 31.08C365.656 31.08 365.912 31.0053 366.168 30.856C366.445 30.7067 366.786 30.4613 367.192 30.12C367.341 30.2693 367.458 30.4293 367.544 30.6C367.629 30.7493 367.704 30.92 367.768 31.112C367.234 31.7093 366.658 32.2213 366.04 32.648C365.421 33.0747 364.76 33.288 364.056 33.288C363.458 33.288 363.01 33.1387 362.712 32.84C362.413 32.5413 362.21 32.168 362.104 31.72C362.018 31.272 362.008 30.8133 362.072 30.344C362.136 29.8533 362.232 29.4267 362.36 29.064C362.445 28.8507 362.552 28.5733 362.68 28.232C362.829 27.8907 362.978 27.5493 363.128 27.208C363.277 26.8667 363.394 26.6107 363.48 26.44L364.632 21.928L364.728 18.344C365.069 18.3653 365.432 18.3547 365.816 18.312C366.2 18.248 366.509 18.1627 366.744 18.056ZM365.208 18.472L364.664 20.2C364.344 20.0293 363.981 19.9013 363.576 19.816C363.17 19.7307 362.754 19.688 362.328 19.688C361.026 19.688 359.992 20.1893 359.224 21.192C358.477 22.1947 357.944 23.4853 357.624 25.064C357.24 26.8773 357.133 28.2747 357.304 29.256C357.496 30.216 357.912 30.696 358.552 30.696C358.936 30.696 359.458 30.3653 360.12 29.704C360.781 29.0213 361.442 28.0507 362.104 26.792C362.786 25.512 363.33 23.9973 363.736 22.248L364.344 19.688L365.848 19.912L364.088 26.728H363.256C362.872 27.7947 362.338 28.84 361.656 29.864C360.973 30.8667 360.205 31.688 359.352 32.328C358.52 32.968 357.656 33.288 356.76 33.288C356.226 33.288 355.768 33.16 355.384 32.904C355 32.648 354.701 32.2427 354.488 31.688C354.274 31.1333 354.168 30.4293 354.168 29.576C354.168 28.7227 354.285 27.7093 354.52 26.536C354.861 24.8933 355.437 23.432 356.248 22.152C357.08 20.872 358.082 19.8693 359.256 19.144C360.45 18.4187 361.741 18.056 363.128 18.056C363.49 18.056 363.874 18.0987 364.28 18.184C364.685 18.2693 364.994 18.3653 365.208 18.472Z" fill="#37332F"/>
<defs>
<linearGradient id="paint0_linear_68_2491" x1="24" y1="0" x2="24" y2="48" gradientUnits="userSpaceOnUse">
<stop stop-color="#37332F"/>
<stop offset="1" stop-color="#5A5855"/>
</linearGradient>
<linearGradient id="paint1_linear_68_2491" x1="24" y1="2" x2="24" y2="46" gradientUnits="userSpaceOnUse">
<stop stop-color="#37332F"/>
<stop offset="1" stop-color="#5A5855"/>
</linearGradient>
</defs>
</svg>
