<svg width="512" height="512" viewBox="0 0 512 512" fill="none" xmlns="http://www.w3.org/2000/svg">
    <path
        d="M94 512V488.727C94 434.812 105.22 391.079 127.661 357.527C150.101 323.976 181.054 290.133 220.518 256C181.054 221.867 150.101 188.024 127.661 154.473C105.22 120.921 94 77.1879 94 23.2727V0H140.429V23.2727C140.429 27.5394 140.525 31.5152 140.719 35.2C140.912 38.8849 141.202 42.6667 141.589 46.5455H371.411C371.798 42.6667 372.088 38.8849 372.281 35.2C372.475 31.5152 372.571 27.5394 372.571 23.2727V0H419V23.2727C419 77.1879 407.78 120.921 385.339 154.473C362.899 188.024 331.946 221.867 292.482 256C331.946 290.133 362.899 323.976 385.339 357.527C407.78 391.079 419 434.812 419 488.727V512H372.571V488.727C372.571 484.461 372.475 480.485 372.281 476.8C372.088 473.115 371.798 469.333 371.411 465.455H141.589C141.202 469.333 140.912 473.115 140.719 476.8C140.525 480.485 140.429 484.461 140.429 488.727V512H94ZM174.089 139.636H338.911C343.94 132.267 348.293 124.897 351.969 117.527C355.644 110.158 359.03 102.012 362.125 93.0909H150.875C153.97 101.624 157.356 109.673 161.031 117.236C164.707 124.8 169.06 132.267 174.089 139.636ZM256.5 225.745C264.238 219.152 271.783 212.558 279.134 205.964C286.485 199.37 293.449 192.776 300.027 186.182H212.973C219.551 192.776 226.515 199.37 233.866 205.964C241.217 212.558 248.762 219.152 256.5 225.745ZM212.973 325.818H300.027C293.449 319.224 286.485 312.63 279.134 306.036C271.783 299.442 264.238 292.848 256.5 286.255C248.762 292.848 241.217 299.442 233.866 306.036C226.515 312.63 219.551 319.224 212.973 325.818ZM150.875 418.909H362.125C359.03 410.376 355.644 402.327 351.969 394.764C348.293 387.2 343.94 379.733 338.911 372.364H174.089C169.06 379.733 164.707 387.103 161.031 394.473C157.356 401.842 153.97 409.988 150.875 418.909Z"
        fill="#F8F2EC" />
</svg>