<svg width="512" height="512" viewBox="0 0 512 512" fill="none" xmlns="http://www.w3.org/2000/svg">
    <path
        d="M344.002 483.991V452.243C344.002 432.803 331.346 416.296 313.829 410.493C310.51 402.343 303.719 396.221 295.602 393.537L287.88 207.994H288.055C294.676 207.994 300.055 202.607 300.055 195.986C300.055 189.373 294.676 183.985 288.055 183.985H286.883L284.549 127.958C290.273 126.737 295.145 122.525 296.292 117.345L311.545 48.8531C312.23 45.7876 311.549 42.7096 309.634 40.317C307.461 37.6087 303.939 35.9887 299.972 35.9887H268.008V19.9965C268.008 8.9681 259.094 0 247.95 0C236.921 0 228.011 8.9681 228.011 19.9965V35.997H196.243C192.272 35.997 188.753 37.6128 186.581 40.3211C184.666 42.7096 183.985 45.7543 184.674 48.8199L199.919 117.321C201.074 122.5 205.946 126.737 211.666 127.958L209.331 183.993H208.164C201.547 183.993 196.164 189.381 196.164 195.994C196.164 202.615 201.547 208.003 208.164 208.003H208.542L200.583 393.545C192.484 396.229 185.68 402.347 182.352 410.468C164.773 416.234 152 432.762 152 452.251V483.999C144 483.999 140 489.387 140 495.999V499.671C140 506.284 145.433 512 152.05 512H344.052C350.665 512 355.999 506.284 355.999 499.671V495.999C356.003 489.378 352.003 483.991 344.002 483.991Z"
        fill="url(#paint0_linear_78_2528)" />
    <defs>
        <linearGradient id="paint0_linear_78_2528" x1="247.999" y1="0" x2="247.999" y2="512"
            gradientUnits="userSpaceOnUse">
            <stop stop-color="#37332F" />
            <stop offset="1" stop-color="#5A5855" />
        </linearGradient>
    </defs>
</svg>