<svg width="512" height="512" viewBox="0 0 512 512" fill="none" xmlns="http://www.w3.org/2000/svg">
    <path
        d="M189.347 381.287L129.085 456.206C120.942 467.607 106.284 474.123 91.6254 475.751C91.6254 475.751 89.9963 475.751 88.3676 475.751C73.7093 475.751 60.6798 470.865 50.9076 459.464C41.1354 448.063 34.6207 433.405 36.2494 418.746C37.8781 404.088 46.0214 391.059 57.4223 381.287L130.714 322.653L189.347 381.287ZM360.361 40.8861C366.876 34.3713 376.649 34.3713 383.163 40.8861C389.678 47.4008 389.678 57.1731 383.163 63.6879L303.357 143.495C283.812 164.668 272.411 185.841 270.783 203.757C270.783 207.015 269.154 211.901 269.154 215.159L296.842 242.846C300.1 241.218 304.985 241.217 308.243 241.217C327.787 241.217 347.331 229.816 368.504 208.643L448.311 128.836C454.826 122.322 464.598 122.322 471.113 128.836C477.628 135.351 477.627 145.123 471.113 151.638L391.307 229.817C370.134 252.619 347.332 265.648 326.159 270.535L432.024 376.401C441.796 387.802 448.311 400.831 448.311 417.118C448.311 433.405 443.425 446.434 432.024 457.835C420.623 467.608 405.965 474.122 391.307 474.122H388.049C371.762 472.494 357.104 465.979 347.331 452.95L280.555 369.885C267.525 353.598 246.352 348.712 228.436 356.856C221.921 360.113 215.407 358.484 210.521 353.598L75.3383 218.415C28.1059 169.554 28.1059 91.3765 75.3383 44.1439C81.8531 37.6291 91.6252 37.6291 98.14 44.1439L239.837 185.841C246.352 164.668 259.382 141.866 280.555 120.693L360.361 40.8861ZM404.336 84.8617C410.851 78.3469 420.623 78.3469 427.138 84.8617C433.653 91.3765 433.653 101.149 427.138 107.663L339.188 195.614C335.93 198.871 331.044 200.499 327.787 200.499C324.529 200.499 319.643 198.871 316.386 195.614C309.871 189.099 309.871 179.327 316.386 172.812L404.336 84.8617Z"
        fill="url(#paint0_linear_249_1463)" />
    <defs>
        <linearGradient id="paint0_linear_249_1463" x1="255.999" y1="36" x2="255.999" y2="475.751"
            gradientUnits="userSpaceOnUse">
            <stop stop-color="#37332F" />
            <stop offset="1" stop-color="#5A5855" />
        </linearGradient>
    </defs>
</svg>