<svg width="512" height="512" viewBox="0 0 512 512" fill="none" xmlns="http://www.w3.org/2000/svg">
    <path
        d="M451.587 91C477.774 91.0001 499.002 112.229 499.002 138.415C499.002 164.601 477.774 185.83 451.587 185.83C448.326 185.83 445.143 185.5 442.067 184.873L359.067 282.963C362.326 289.393 364.165 296.665 364.165 304.367C364.165 330.554 342.937 351.782 316.75 351.782C290.563 351.782 269.335 330.554 269.335 304.367C269.335 296.951 271.039 289.933 274.074 283.682L208.686 231.371C207.341 231.542 205.978 231.656 204.601 231.711L104.586 356.729C106.679 362.08 107.83 367.903 107.83 373.995C107.83 400.182 86.6015 421.41 60.415 421.41C34.2286 421.41 13.0001 400.182 13 373.995C13 347.809 34.2285 326.58 60.415 326.58C62.8428 326.58 65.228 326.762 67.5576 327.114L162.111 208.923C157.755 201.754 155.246 193.338 155.246 184.336C155.246 158.149 176.475 136.921 202.661 136.921C228.848 136.921 250.076 158.149 250.076 184.336C250.076 190.302 248.97 196.009 246.958 201.269L316.564 256.953C316.626 256.953 316.688 256.952 316.75 256.952C317.479 256.952 318.203 256.968 318.924 257.001L406.59 153.396C405.023 148.687 404.172 143.651 404.172 138.415C404.172 112.228 425.4 91 451.587 91Z"
        fill="url(#paint0_linear_227_1460)" />
    <defs>
        <linearGradient id="paint0_linear_227_1460" x1="256.001" y1="91" x2="256.001" y2="421.41"
            gradientUnits="userSpaceOnUse">
            <stop stop-color="#37332F" />
            <stop offset="1" stop-color="#5A5855" />
        </linearGradient>
    </defs>
</svg>