<svg width="376" height="48" viewBox="0 0 376 48" fill="none" xmlns="http://www.w3.org/2000/svg">
    <mask id="mask0_0_1" style="mask-type:alpha" maskUnits="userSpaceOnUse" x="0" y="0" width="48" height="48">
        <rect width="48" height="48" fill="url(#paint0_linear_0_1)" />
    </mask>
    <g mask="url(#mask0_0_1)">
        <path
            d="M10 46V44C10 39.3667 10.9667 35.6083 12.9 32.725C14.8333 29.8417 17.5 26.9333 20.9 24C17.5 21.0667 14.8333 18.1583 12.9 15.275C10.9667 12.3917 10 8.63333 10 4V2H14V4C14 4.36667 14.0083 4.70833 14.025 5.025C14.0417 5.34167 14.0667 5.66667 14.1 6H33.9C33.9333 5.66667 33.9583 5.34167 33.975 5.025C33.9917 4.70833 34 4.36667 34 4V2H38V4C38 8.63333 37.0333 12.3917 35.1 15.275C33.1667 18.1583 30.5 21.0667 27.1 24C30.5 26.9333 33.1667 29.8417 35.1 32.725C37.0333 35.6083 38 39.3667 38 44V46H34V44C34 43.6333 33.9917 43.2917 33.975 42.975C33.9583 42.6583 33.9333 42.3333 33.9 42H14.1C14.0667 42.3333 14.0417 42.6583 14.025 42.975C14.0083 43.2917 14 43.6333 14 44V46H10ZM16.9 14H31.1C31.5333 13.3667 31.9083 12.7333 32.225 12.1C32.5417 11.4667 32.8333 10.7667 33.1 10H14.9C15.1667 10.7333 15.4583 11.425 15.775 12.075C16.0917 12.725 16.4667 13.3667 16.9 14ZM24 21.4C24.6667 20.8333 25.3167 20.2667 25.95 19.7C26.5833 19.1333 27.1833 18.5667 27.75 18H20.25C20.8167 18.5667 21.4167 19.1333 22.05 19.7C22.6833 20.2667 23.3333 20.8333 24 21.4ZM20.25 30H27.75C27.1833 29.4333 26.5833 28.8667 25.95 28.3C25.3167 27.7333 24.6667 27.1667 24 26.6C23.3333 27.1667 22.6833 27.7333 22.05 28.3C21.4167 28.8667 20.8167 29.4333 20.25 30ZM14.9 38H33.1C32.8333 37.2667 32.5417 36.575 32.225 35.925C31.9083 35.275 31.5333 34.6333 31.1 34H16.9C16.4667 34.6333 16.0917 35.2667 15.775 35.9C15.4583 36.5333 15.1667 37.2333 14.9 38Z"
            fill="url(#paint1_linear_0_1)" />
    </g>
    <path
        d="M77.312 12.968C77.0347 13.6933 76.8107 14.4507 76.64 15.24C76.4907 16.0293 76.3627 16.8827 76.256 17.8C75.7227 18.0133 75.1467 18.0347 74.528 17.864C74.72 16.3493 74.6773 15.208 74.4 14.44C74.144 13.6507 73.696 13.1173 73.056 12.84C72.4373 12.5413 71.6693 12.392 70.752 12.392C68.9387 12.392 67.36 12.84 66.016 13.736C64.6933 14.632 63.6373 15.8373 62.848 17.352C62.0587 18.8453 61.5573 20.5093 61.344 22.344C61.1733 23.9227 61.28 25.4053 61.664 26.792C62.048 28.1573 62.7413 29.256 63.744 30.088C64.7467 30.92 66.0907 31.336 67.776 31.336C68.9493 31.336 70.0693 31.176 71.136 30.856C72.224 30.5147 73.2373 30.056 74.176 29.48C74.3467 29.6293 74.464 29.8107 74.528 30.024C74.6133 30.2373 74.6667 30.4613 74.688 30.696C73.4507 31.592 72.1813 32.2533 70.88 32.68C69.6 33.0853 68.2773 33.288 66.912 33.288C64.7147 33.288 62.9013 32.808 61.472 31.848C60.064 30.888 59.0613 29.5973 58.464 27.976C57.8667 26.3333 57.696 24.5093 57.952 22.504C58.208 20.4987 58.7413 18.7813 59.552 17.352C60.384 15.9013 61.3867 14.7173 62.56 13.8C63.7547 12.8613 65.0347 12.1787 66.4 11.752C67.7867 11.304 69.1627 11.08 70.528 11.08C71.872 11.08 73.0667 11.24 74.112 11.56C75.1787 11.8587 76.2453 12.328 77.312 12.968ZM82.0725 33.288C80.7925 33.288 79.7472 32.9573 78.9365 32.296C78.1258 31.6133 77.5818 30.696 77.3045 29.544C77.0272 28.392 77.0272 27.0907 77.3045 25.64C77.6032 24.1253 78.1258 22.8027 78.8725 21.672C79.6192 20.5413 80.5365 19.656 81.6245 19.016C82.7125 18.376 83.8858 18.056 85.1445 18.056C86.4032 18.056 87.4272 18.376 88.2165 19.016C89.0272 19.6347 89.5818 20.4987 89.8805 21.608C90.1792 22.696 90.2005 23.9547 89.9445 25.384C89.6885 26.8987 89.1765 28.2533 88.4085 29.448C87.6618 30.6427 86.7445 31.5813 85.6565 32.264C84.5685 32.9467 83.3738 33.288 82.0725 33.288ZM82.4885 31.752C83.1285 31.752 83.7258 31.4853 84.2805 30.952C84.8565 30.4187 85.3578 29.704 85.7845 28.808C86.2325 27.8907 86.5632 26.856 86.7765 25.704C87.1178 23.9333 87.0965 22.472 86.7125 21.32C86.3285 20.168 85.6458 19.592 84.6645 19.592C83.7472 19.592 82.9045 20.1253 82.1365 21.192C81.3685 22.2373 80.8138 23.6133 80.4725 25.32C80.2378 26.5573 80.1632 27.6667 80.2485 28.648C80.3338 29.608 80.5685 30.3653 80.9525 30.92C81.3365 31.4747 81.8485 31.752 82.4885 31.752ZM110.587 33.288C109.904 33.288 109.424 33.1173 109.147 32.776C108.87 32.4133 108.752 31.8587 108.795 31.112C108.838 30.344 108.987 29.352 109.243 28.136L110.075 24.488C110.416 23.016 110.544 21.9707 110.459 21.352C110.395 20.712 110.128 20.392 109.659 20.392C109.168 20.392 108.539 20.712 107.771 21.352C107.024 21.9707 106.299 22.9093 105.595 24.168C104.891 25.4053 104.347 26.9627 103.963 28.84L103.163 33H100.283L101.755 25.8C102.075 24.3067 102.256 23.176 102.299 22.408C102.363 21.64 102.32 21.1173 102.171 20.84C102.043 20.5413 101.83 20.392 101.531 20.392C101.019 20.392 100.39 20.7227 99.643 21.384C98.9177 22.0453 98.2137 23.0053 97.531 24.264C96.8697 25.5013 96.3577 27.0267 95.995 28.84L95.195 33H92.283L94.043 23.688C94.235 22.6853 94.3203 21.9707 94.299 21.544C94.299 21.1173 94.1497 20.8507 93.851 20.744C93.5523 20.6373 93.0617 20.584 92.379 20.584C92.3577 20.392 92.3577 20.1893 92.379 19.976C92.4217 19.7413 92.4857 19.5387 92.571 19.368C92.9123 19.3253 93.3603 19.24 93.915 19.112C94.4697 18.9627 95.0243 18.792 95.579 18.6C96.1337 18.3867 96.5603 18.2053 96.859 18.056C97.2003 18.1627 97.4243 18.3867 97.531 18.728C97.6377 19.0693 97.6377 19.5387 97.531 20.136C97.3603 21.0533 97.179 21.8107 96.987 22.408C96.8163 23.0053 96.6137 23.5707 96.379 24.104H96.411L96.891 23.048C97.1043 22.5787 97.4137 22.0667 97.819 21.512C98.2457 20.936 98.7257 20.392 99.259 19.88C99.8137 19.3467 100.39 18.92 100.987 18.6C101.606 18.2587 102.203 18.088 102.779 18.088C103.248 18.088 103.686 18.216 104.091 18.472C104.496 18.7067 104.806 19.0907 105.019 19.624C105.232 20.1573 105.264 20.8613 105.115 21.736C105.051 22.0987 104.955 22.4827 104.827 22.888C104.72 23.2933 104.582 23.6987 104.411 24.104H104.443L104.923 23.048C105.136 22.5573 105.456 22.0347 105.883 21.48C106.331 20.904 106.843 20.36 107.419 19.848C107.995 19.3147 108.592 18.888 109.211 18.568C109.851 18.2267 110.47 18.056 111.067 18.056C112.134 18.056 112.859 18.6213 113.243 19.752C113.627 20.8827 113.574 22.4187 113.083 24.36L112.123 28.104C111.888 29 111.739 29.6613 111.675 30.088C111.611 30.5147 111.611 30.792 111.675 30.92C111.76 31.0267 111.899 31.08 112.091 31.08C112.39 31.08 112.667 31.0053 112.923 30.856C113.2 30.7067 113.531 30.4613 113.915 30.12C114.086 30.2693 114.214 30.4293 114.299 30.6C114.384 30.7493 114.438 30.9307 114.459 31.144C113.798 31.8907 113.158 32.4347 112.539 32.776C111.92 33.1173 111.27 33.288 110.587 33.288ZM115.596 40.84L118.604 23.752C118.796 22.7493 118.881 22.0347 118.86 21.608C118.86 21.1813 118.711 20.9147 118.412 20.808C118.135 20.7013 117.655 20.648 116.972 20.648C116.972 20.4133 116.983 20.1893 117.004 19.976C117.025 19.7627 117.079 19.5813 117.164 19.432C117.505 19.3893 117.953 19.304 118.508 19.176C119.084 19.0267 119.649 18.856 120.204 18.664C120.759 18.4507 121.185 18.2693 121.484 18.12C121.825 18.2267 122.049 18.4507 122.156 18.792C122.263 19.112 122.263 19.5707 122.156 20.168C122.092 20.5947 122.007 21.0107 121.9 21.416C121.815 21.8213 121.708 22.2267 121.58 22.632C121.452 23.0373 121.303 23.4427 121.132 23.848L120.748 24.808L119.436 32.168C119.543 32.744 119.585 33.3307 119.564 33.928C119.564 34.5467 119.457 35.4533 119.244 36.648L118.508 40.84H115.596ZM118.956 32.84L119.5 31.112C119.82 31.2827 120.183 31.4107 120.588 31.496C120.993 31.5813 121.409 31.624 121.836 31.624C123.159 31.624 124.193 31.1227 124.94 30.12C125.687 29.1173 126.22 27.8267 126.54 26.248C126.924 24.4347 127.02 23.048 126.828 22.088C126.657 21.1067 126.252 20.616 125.612 20.616C125.249 20.616 124.727 20.9573 124.044 21.64C123.383 22.3013 122.711 23.2613 122.028 24.52C121.367 25.7787 120.833 27.2933 120.428 29.064L119.82 31.624L118.316 31.4L120.076 24.584H120.908C121.313 23.496 121.847 22.4507 122.508 21.448C123.191 20.4453 123.948 19.624 124.78 18.984C125.633 18.344 126.508 18.024 127.404 18.024C127.937 18.024 128.396 18.152 128.78 18.408C129.164 18.664 129.463 19.0693 129.676 19.624C129.889 20.1787 129.996 20.8827 129.996 21.736C129.996 22.568 129.879 23.5813 129.644 24.776C129.324 26.4187 128.748 27.88 127.916 29.16C127.084 30.44 126.071 31.4427 124.876 32.168C123.703 32.8933 122.423 33.256 121.036 33.256C120.695 33.256 120.311 33.2133 119.884 33.128C119.479 33.0427 119.169 32.9467 118.956 32.84ZM134.534 33.288C133.808 33.288 133.264 33.064 132.902 32.616C132.56 32.168 132.347 31.5813 132.262 30.856C132.198 30.1093 132.23 29.2987 132.358 28.424C132.486 27.528 132.656 26.6533 132.87 25.8C133.19 24.52 133.414 23.528 133.542 22.824C133.691 22.0987 133.734 21.5867 133.67 21.288C133.606 20.968 133.435 20.776 133.158 20.712C132.88 20.6267 132.475 20.584 131.942 20.584C131.92 20.392 131.92 20.1893 131.942 19.976C131.963 19.7413 132.016 19.5387 132.102 19.368C132.422 19.3253 132.859 19.24 133.414 19.112C133.99 18.9627 134.555 18.792 135.11 18.6C135.664 18.3867 136.08 18.2053 136.358 18.056C136.592 18.2053 136.763 18.376 136.87 18.568C136.998 18.7387 137.04 19.0693 136.998 19.56C136.976 20.0507 136.848 20.808 136.614 21.832C136.4 22.8347 136.08 24.232 135.654 26.024C135.398 27.0907 135.238 27.9973 135.174 28.744C135.131 29.4693 135.195 30.0133 135.366 30.376C135.558 30.7387 135.835 30.92 136.198 30.92C136.603 30.92 137.158 30.6107 137.862 29.992C138.566 29.352 139.27 28.392 139.974 27.112C140.678 25.8107 141.211 24.1787 141.574 22.216L142.31 18.344H145.222L143.654 26.28C143.355 27.7733 143.152 28.8613 143.046 29.544C142.939 30.2267 142.918 30.6533 142.982 30.824C143.067 30.9947 143.227 31.08 143.462 31.08C143.846 31.08 144.368 30.7493 145.03 30.088C145.179 30.216 145.296 30.376 145.382 30.568C145.488 30.7387 145.574 30.92 145.638 31.112C145.126 31.7093 144.539 32.2213 143.878 32.648C143.238 33.0747 142.63 33.288 142.054 33.288C141.414 33.288 140.923 33.1387 140.582 32.84C140.24 32.52 140.027 32.0933 139.942 31.56C139.878 31.0267 139.91 30.408 140.038 29.704C140.08 29.448 140.144 29.192 140.23 28.936C140.315 28.68 140.422 28.424 140.55 28.168H140.486C140.23 28.7013 139.888 29.2667 139.462 29.864C139.056 30.44 138.587 30.9947 138.054 31.528C137.52 32.04 136.955 32.4667 136.358 32.808C135.76 33.128 135.152 33.288 134.534 33.288ZM151.552 33.288C150.656 33.288 149.962 33.064 149.472 32.616C149.002 32.1467 148.736 31.432 148.672 30.472C148.608 29.512 148.746 28.264 149.088 26.728L151.008 18.344C151.242 17.3627 151.434 16.4987 151.584 15.752C151.733 14.984 151.818 14.376 151.84 13.928C152.266 13.864 152.714 13.768 153.184 13.64C153.674 13.4907 154.069 13.3307 154.368 13.16C154.538 13.2453 154.656 13.3947 154.72 13.608C154.784 13.8213 154.784 14.1947 154.72 14.728C154.656 15.24 154.496 16.0293 154.24 17.096L152.032 26.504C151.776 27.6773 151.637 28.616 151.616 29.32C151.616 30.024 151.722 30.536 151.936 30.856C152.149 31.1547 152.426 31.304 152.768 31.304C153.13 31.304 153.525 31.1653 153.952 30.888C154.4 30.6107 154.794 30.2693 155.135 29.864C155.306 29.9493 155.456 30.0987 155.584 30.312C155.712 30.504 155.786 30.696 155.808 30.888C155.53 31.2507 155.157 31.624 154.688 32.008C154.24 32.3707 153.749 32.68 153.216 32.936C152.682 33.1707 152.128 33.288 151.552 33.288ZM150.88 20.136C150.474 20.0933 150.037 20.0507 149.568 20.008C149.098 19.944 148.65 19.912 148.224 19.912C148.224 19.6773 148.256 19.4533 148.32 19.24C148.384 19.0053 148.469 18.8133 148.576 18.664H151.136L150.88 20.136ZM153.312 20.168L153.568 18.664H157.504C157.504 18.8773 157.482 19.1013 157.44 19.336C157.418 19.5493 157.365 19.7413 157.28 19.912C156.341 19.912 155.552 19.944 154.911 20.008C154.272 20.0507 153.738 20.104 153.312 20.168ZM170.056 18.056C170.184 18.0987 170.291 18.2053 170.376 18.376C170.461 18.5253 170.483 18.8133 170.44 19.24C170.419 19.6453 170.312 20.2747 170.12 21.128L168.52 28.296C168.285 29.4693 168.168 30.2267 168.168 30.568C168.189 30.9093 168.371 31.08 168.712 31.08C168.968 31.08 169.224 31.0053 169.48 30.856C169.757 30.7067 170.099 30.4613 170.504 30.12C170.653 30.2693 170.771 30.4293 170.856 30.6C170.941 30.7493 171.016 30.92 171.08 31.112C170.547 31.7093 169.971 32.2213 169.352 32.648C168.733 33.0747 168.072 33.288 167.368 33.288C166.771 33.288 166.323 33.1387 166.024 32.84C165.725 32.5413 165.523 32.168 165.416 31.72C165.331 31.272 165.32 30.8133 165.384 30.344C165.448 29.8533 165.544 29.4267 165.672 29.064C165.757 28.8507 165.864 28.5733 165.992 28.232C166.141 27.8907 166.291 27.5493 166.44 27.208C166.589 26.8667 166.707 26.6107 166.792 26.44L167.944 21.928L168.04 18.344C168.381 18.3653 168.744 18.3547 169.128 18.312C169.512 18.248 169.821 18.1627 170.056 18.056ZM168.52 18.472L167.976 20.2C167.656 20.0293 167.293 19.9013 166.888 19.816C166.483 19.7307 166.067 19.688 165.64 19.688C164.339 19.688 163.304 20.1893 162.536 21.192C161.789 22.1947 161.256 23.4853 160.936 25.064C160.552 26.8773 160.445 28.2747 160.616 29.256C160.808 30.216 161.224 30.696 161.864 30.696C162.248 30.696 162.771 30.3653 163.432 29.704C164.093 29.0213 164.755 28.0507 165.416 26.792C166.099 25.512 166.643 23.9973 167.048 22.248L167.656 19.688L169.16 19.912L167.4 26.728H166.568C166.184 27.7947 165.651 28.84 164.968 29.864C164.285 30.8667 163.517 31.688 162.664 32.328C161.832 32.968 160.968 33.288 160.072 33.288C159.539 33.288 159.08 33.16 158.696 32.904C158.312 32.648 158.013 32.2427 157.8 31.688C157.587 31.1333 157.48 30.4293 157.48 29.576C157.48 28.7227 157.597 27.7093 157.832 26.536C158.173 24.8933 158.749 23.432 159.56 22.152C160.392 20.872 161.395 19.8693 162.568 19.144C163.763 18.4187 165.053 18.056 166.44 18.056C166.803 18.056 167.187 18.0987 167.592 18.184C167.997 18.2693 168.307 18.3653 168.52 18.472ZM176.541 33.288C175.581 33.288 174.824 33.064 174.269 32.616C173.714 32.1467 173.32 31.528 173.085 30.76C172.872 29.992 172.776 29.1493 172.797 28.232C172.84 27.2933 172.968 26.3547 173.181 25.416C173.416 24.3707 173.746 23.4 174.173 22.504C174.6 21.608 175.112 20.8293 175.709 20.168C176.328 19.5067 177.032 18.9947 177.821 18.632C178.632 18.248 179.549 18.056 180.573 18.056C181.149 18.056 181.704 18.12 182.237 18.248C182.77 18.376 183.208 18.568 183.549 18.824C183.378 19.3573 183.229 19.9227 183.101 20.52C182.973 21.1173 182.877 21.704 182.813 22.28C182.408 22.472 181.896 22.5147 181.277 22.408C181.362 21.3413 181.266 20.616 180.989 20.232C180.733 19.8267 180.317 19.624 179.741 19.624C178.973 19.624 178.333 19.8907 177.821 20.424C177.33 20.9573 176.936 21.64 176.637 22.472C176.36 23.2827 176.146 24.1253 175.997 25C175.89 25.6613 175.816 26.3547 175.773 27.08C175.73 27.784 175.762 28.4453 175.869 29.064C175.997 29.6613 176.232 30.152 176.573 30.536C176.936 30.8987 177.448 31.08 178.109 31.08C178.728 31.08 179.336 30.9093 179.933 30.568C180.53 30.2267 181.085 29.7787 181.597 29.224C181.768 29.3307 181.896 29.4587 181.981 29.608C182.088 29.7573 182.184 29.928 182.269 30.12C181.416 31.2293 180.477 32.04 179.453 32.552C178.45 33.0427 177.48 33.288 176.541 33.288ZM173.885 40.744C173.842 40.5947 173.821 40.424 173.821 40.232C173.821 40.0613 173.832 39.8907 173.853 39.72C174.642 39.72 175.282 39.592 175.773 39.336C176.285 39.08 176.594 38.6747 176.701 38.12C176.808 37.5013 176.69 37.032 176.349 36.712C176.029 36.392 175.57 36.232 174.973 36.232C174.632 35.9333 174.525 35.528 174.653 35.016L176.733 32.488H178.493L176.637 34.76C177.426 34.9093 177.992 35.2507 178.333 35.784C178.696 36.3173 178.781 37.0747 178.589 38.056C178.397 38.9733 177.864 39.656 176.989 40.104C176.136 40.552 175.101 40.7653 173.885 40.744ZM196.837 18.056C196.965 18.0987 197.072 18.2053 197.157 18.376C197.243 18.5253 197.264 18.8133 197.221 19.24C197.2 19.6453 197.093 20.2747 196.901 21.128L195.301 28.296C195.067 29.4693 194.949 30.2267 194.949 30.568C194.971 30.9093 195.152 31.08 195.493 31.08C195.749 31.08 196.005 31.0053 196.261 30.856C196.539 30.7067 196.88 30.4613 197.285 30.12C197.435 30.2693 197.552 30.4293 197.637 30.6C197.723 30.7493 197.797 30.92 197.861 31.112C197.328 31.7093 196.752 32.2213 196.133 32.648C195.515 33.0747 194.853 33.288 194.149 33.288C193.552 33.288 193.104 33.1387 192.805 32.84C192.507 32.5413 192.304 32.168 192.197 31.72C192.112 31.272 192.101 30.8133 192.165 30.344C192.229 29.8533 192.325 29.4267 192.453 29.064C192.539 28.8507 192.645 28.5733 192.773 28.232C192.923 27.8907 193.072 27.5493 193.221 27.208C193.371 26.8667 193.488 26.6107 193.573 26.44L194.725 21.928L194.821 18.344C195.163 18.3653 195.525 18.3547 195.909 18.312C196.293 18.248 196.603 18.1627 196.837 18.056ZM195.301 18.472L194.757 20.2C194.437 20.0293 194.075 19.9013 193.669 19.816C193.264 19.7307 192.848 19.688 192.421 19.688C191.12 19.688 190.085 20.1893 189.317 21.192C188.571 22.1947 188.037 23.4853 187.717 25.064C187.333 26.8773 187.227 28.2747 187.397 29.256C187.589 30.216 188.005 30.696 188.645 30.696C189.029 30.696 189.552 30.3653 190.213 29.704C190.875 29.0213 191.536 28.0507 192.197 26.792C192.88 25.512 193.424 23.9973 193.829 22.248L194.437 19.688L195.941 19.912L194.181 26.728H193.349C192.965 27.7947 192.432 28.84 191.749 29.864C191.067 30.8667 190.299 31.688 189.445 32.328C188.613 32.968 187.749 33.288 186.853 33.288C186.32 33.288 185.861 33.16 185.477 32.904C185.093 32.648 184.795 32.2427 184.581 31.688C184.368 31.1333 184.261 30.4293 184.261 29.576C184.261 28.7227 184.379 27.7093 184.613 26.536C184.955 24.8933 185.531 23.432 186.341 22.152C187.173 20.872 188.176 19.8693 189.349 19.144C190.544 18.4187 191.835 18.056 193.221 18.056C193.584 18.056 193.968 18.0987 194.373 18.184C194.779 18.2693 195.088 18.3653 195.301 18.472ZM195.749 15.272C195.387 15.272 195.035 15.208 194.693 15.08C194.352 14.9307 194.021 14.7707 193.701 14.6C193.381 14.408 193.061 14.248 192.741 14.12C192.421 13.9707 192.08 13.896 191.717 13.896C191.248 13.896 190.789 13.9813 190.341 14.152C189.893 14.3227 189.392 14.6427 188.837 15.112C188.731 15.0267 188.645 14.92 188.581 14.792C188.517 14.6427 188.496 14.4933 188.517 14.344C189.328 13.2987 190.053 12.5947 190.693 12.232C191.355 11.848 191.931 11.656 192.421 11.656C192.805 11.656 193.168 11.7307 193.509 11.88C193.851 12.008 194.181 12.1573 194.501 12.328C194.821 12.4987 195.12 12.6587 195.397 12.808C195.696 12.936 195.995 13 196.293 13C196.72 13 197.125 12.904 197.509 12.712C197.893 12.4987 198.267 12.2107 198.629 11.848C198.736 11.8907 198.843 11.9653 198.949 12.072C199.056 12.1787 199.141 12.3173 199.205 12.488C198.48 13.5973 197.84 14.344 197.285 14.728C196.731 15.0907 196.219 15.272 195.749 15.272ZM204.666 33.288C203.386 33.288 202.341 32.9573 201.53 32.296C200.72 31.6133 200.176 30.696 199.898 29.544C199.621 28.392 199.621 27.0907 199.898 25.64C200.197 24.1253 200.72 22.8027 201.466 21.672C202.213 20.5413 203.13 19.656 204.218 19.016C205.306 18.376 206.48 18.056 207.738 18.056C208.997 18.056 210.021 18.376 210.81 19.016C211.621 19.6347 212.176 20.4987 212.474 21.608C212.773 22.696 212.794 23.9547 212.538 25.384C212.282 26.8987 211.77 28.2533 211.002 29.448C210.256 30.6427 209.338 31.5813 208.25 32.264C207.162 32.9467 205.968 33.288 204.666 33.288ZM205.082 31.752C205.722 31.752 206.32 31.4853 206.874 30.952C207.45 30.4187 207.952 29.704 208.378 28.808C208.826 27.8907 209.157 26.856 209.37 25.704C209.712 23.9333 209.69 22.472 209.306 21.32C208.922 20.168 208.24 19.592 207.258 19.592C206.341 19.592 205.498 20.1253 204.73 21.192C203.962 22.2373 203.408 23.6133 203.066 25.32C202.832 26.5573 202.757 27.6667 202.842 28.648C202.928 29.608 203.162 30.3653 203.546 30.92C203.93 31.4747 204.442 31.752 205.082 31.752ZM225.939 28.744C225.789 29.6187 225.747 30.2693 225.811 30.696C225.896 31.1013 226.131 31.368 226.515 31.496C226.92 31.6027 227.507 31.656 228.275 31.656C229.661 31.656 230.845 31.2933 231.827 30.568C232.808 29.8427 233.405 28.8933 233.619 27.72C234.003 25.8 233.747 24.4347 232.851 23.624C231.976 22.8133 230.301 22.408 227.827 22.408H226.643L226.899 20.968H228.211C229.939 20.968 231.283 20.6053 232.243 19.88C233.224 19.1333 233.832 18.152 234.067 16.936C234.365 15.4853 234.141 14.408 233.395 13.704C232.669 13 231.592 12.648 230.163 12.648C229.907 12.648 229.619 12.6693 229.299 12.712C229 12.7547 228.659 12.8293 228.275 12.936L228.755 12.424L225.939 28.744ZM226.835 11.368C227.603 11.368 228.371 11.3573 229.139 11.336C229.907 11.2933 230.653 11.272 231.379 11.272C232.872 11.272 234.109 11.4533 235.091 11.816C236.072 12.1573 236.755 12.7227 237.139 13.512C237.544 14.3013 237.629 15.336 237.395 16.616C237.181 17.8107 236.573 18.8453 235.571 19.72C234.568 20.5733 233.352 21.096 231.923 21.288C233.949 21.3947 235.421 21.96 236.339 22.984C237.256 24.008 237.512 25.5333 237.107 27.56C236.893 28.648 236.413 29.608 235.667 30.44C234.92 31.2507 233.949 31.88 232.755 32.328C231.56 32.776 230.173 33 228.595 33C227.784 33 226.867 33 225.843 33C224.84 33 223.827 33 222.803 33C221.8 33.0213 220.872 33.0533 220.019 33.096C220.04 32.7973 220.072 32.5413 220.115 32.328C220.157 32.0933 220.211 31.8907 220.275 31.72C220.936 31.6133 221.427 31.464 221.747 31.272C222.088 31.08 222.344 30.7707 222.515 30.344C222.685 29.896 222.835 29.256 222.963 28.424L225.267 15.272C225.395 14.5467 225.405 14.0133 225.299 13.672C225.213 13.3093 225.011 13.064 224.691 12.936C224.371 12.7867 223.933 12.6907 223.379 12.648C223.336 12.4133 223.304 12.1893 223.283 11.976C223.283 11.7627 223.293 11.528 223.315 11.272C224.061 11.3147 224.691 11.3467 225.203 11.368C225.715 11.368 226.259 11.368 226.835 11.368ZM241.638 33.288C240.934 33.288 240.411 33.096 240.07 32.712C239.728 32.328 239.547 31.7947 239.526 31.112C239.504 30.408 239.622 29.5973 239.878 28.68L241.19 24.072C241.51 22.984 241.691 22.1947 241.734 21.704C241.798 21.2133 241.68 20.904 241.382 20.776C241.104 20.648 240.614 20.584 239.91 20.584C239.888 20.3493 239.888 20.136 239.91 19.944C239.952 19.7307 240.016 19.5387 240.102 19.368C240.443 19.3253 240.848 19.2293 241.318 19.08C241.808 18.9307 242.278 18.76 242.726 18.568C243.174 18.376 243.526 18.2053 243.782 18.056C244.443 18.3333 244.838 18.8027 244.966 19.464C245.115 20.104 245.008 21.0853 244.646 22.408L242.886 28.584C242.587 29.6293 242.459 30.3013 242.502 30.6C242.566 30.8987 242.747 31.048 243.046 31.048C243.259 31.048 243.504 30.9733 243.782 30.824C244.08 30.6747 244.39 30.44 244.71 30.12C244.88 30.2267 245.008 30.3653 245.094 30.536C245.2 30.7067 245.264 30.9093 245.286 31.144C244.667 31.8053 244.048 32.328 243.43 32.712C242.832 33.096 242.235 33.288 241.638 33.288ZM244.422 14.536C243.91 14.536 243.526 14.3653 243.27 14.024C243.035 13.6613 242.971 13.2027 243.078 12.648C243.206 12.0507 243.462 11.5813 243.846 11.24C244.23 10.8773 244.667 10.696 245.158 10.696C245.691 10.696 246.086 10.8773 246.342 11.24C246.598 11.5813 246.662 12.0507 246.534 12.648C246.427 13.2027 246.182 13.6613 245.798 14.024C245.414 14.3653 244.955 14.536 244.422 14.536ZM252.104 33.288C250.824 33.288 249.778 32.9573 248.968 32.296C248.157 31.6133 247.613 30.696 247.336 29.544C247.058 28.392 247.058 27.0907 247.336 25.64C247.634 24.1253 248.157 22.8027 248.904 21.672C249.65 20.5413 250.568 19.656 251.656 19.016C252.744 18.376 253.917 18.056 255.176 18.056C256.434 18.056 257.458 18.376 258.248 19.016C259.058 19.6347 259.613 20.4987 259.912 21.608C260.21 22.696 260.232 23.9547 259.976 25.384C259.72 26.8987 259.208 28.2533 258.44 29.448C257.693 30.6427 256.776 31.5813 255.688 32.264C254.6 32.9467 253.405 33.288 252.104 33.288ZM252.52 31.752C253.16 31.752 253.757 31.4853 254.312 30.952C254.888 30.4187 255.389 29.704 255.816 28.808C256.264 27.8907 256.594 26.856 256.808 25.704C257.149 23.9333 257.128 22.472 256.744 21.32C256.36 20.168 255.677 19.592 254.696 19.592C253.778 19.592 252.936 20.1253 252.168 21.192C251.4 22.2373 250.845 23.6133 250.504 25.32C250.269 26.5573 250.194 27.6667 250.28 28.648C250.365 29.608 250.6 30.3653 250.984 30.92C251.368 31.4747 251.88 31.752 252.52 31.752ZM264.106 33.288C263.402 33.288 262.88 33.096 262.538 32.712C262.197 32.328 262.016 31.7947 261.994 31.112C261.973 30.408 262.09 29.5973 262.346 28.68L263.658 24.072C263.978 22.984 264.16 22.1947 264.202 21.704C264.266 21.2133 264.149 20.904 263.85 20.776C263.573 20.648 263.082 20.584 262.378 20.584C262.357 20.3493 262.357 20.136 262.378 19.944C262.421 19.7307 262.485 19.5387 262.57 19.368C262.912 19.3253 263.317 19.2293 263.786 19.08C264.277 18.9307 264.746 18.76 265.194 18.568C265.642 18.376 265.994 18.2053 266.25 18.056C266.912 18.3333 267.306 18.8027 267.434 19.464C267.584 20.104 267.477 21.0853 267.114 22.408L265.354 28.584C265.056 29.6293 264.928 30.3013 264.97 30.6C265.034 30.8987 265.216 31.048 265.514 31.048C265.728 31.048 265.973 30.9733 266.25 30.824C266.549 30.6747 266.858 30.44 267.178 30.12C267.349 30.2267 267.477 30.3653 267.562 30.536C267.669 30.7067 267.733 30.9093 267.754 31.144C267.136 31.8053 266.517 32.328 265.898 32.712C265.301 33.096 264.704 33.288 264.106 33.288ZM266.89 14.536C266.378 14.536 265.994 14.3653 265.738 14.024C265.504 13.6613 265.44 13.2027 265.546 12.648C265.674 12.0507 265.93 11.5813 266.314 11.24C266.698 10.8773 267.136 10.696 267.626 10.696C268.16 10.696 268.554 10.8773 268.81 11.24C269.066 11.5813 269.13 12.0507 269.002 12.648C268.896 13.2027 268.65 13.6613 268.266 14.024C267.882 14.3653 267.424 14.536 266.89 14.536ZM270.157 33L271.917 23.688C272.109 22.6853 272.205 21.9707 272.205 21.544C272.205 21.1173 272.055 20.8507 271.757 20.744C271.458 20.6373 270.967 20.584 270.285 20.584C270.285 20.3493 270.295 20.1253 270.317 19.912C270.338 19.6987 270.391 19.5173 270.477 19.368C270.818 19.3253 271.266 19.24 271.821 19.112C272.397 18.9627 272.962 18.792 273.516 18.6C274.093 18.3867 274.53 18.2053 274.829 18.056C275.17 18.1627 275.394 18.3867 275.501 18.728C275.607 19.0693 275.607 19.5387 275.501 20.136C275.33 21.0533 275.149 21.8107 274.957 22.408C274.765 23.0053 274.551 23.5707 274.317 24.104L273.869 28.84L273.069 33H270.157ZM280.781 18.056C281.122 18.056 281.485 18.1413 281.869 18.312C282.253 18.4827 282.583 18.792 282.861 19.24C283.138 19.6667 283.309 20.2853 283.373 21.096C283.437 21.9067 283.319 22.9413 283.021 24.2L282.093 28.104C281.879 29.064 281.73 29.7573 281.645 30.184C281.559 30.5893 281.549 30.8453 281.613 30.952C281.677 31.0587 281.794 31.112 281.965 31.112C282.199 31.112 282.487 31.016 282.829 30.824C283.191 30.6107 283.501 30.376 283.757 30.12C283.927 30.2693 284.055 30.4293 284.141 30.6C284.226 30.7493 284.29 30.9307 284.333 31.144C283.629 31.8693 282.978 32.4133 282.381 32.776C281.805 33.1173 281.229 33.288 280.653 33.288C279.821 33.288 279.255 33.0853 278.957 32.68C278.679 32.2533 278.583 31.656 278.669 30.888C278.754 30.0987 278.914 29.1813 279.149 28.136L280.013 24.328C280.269 23.24 280.386 22.4187 280.365 21.864C280.365 21.288 280.279 20.904 280.109 20.712C279.959 20.4987 279.767 20.392 279.533 20.392C279.149 20.392 278.679 20.5947 278.125 21C277.591 21.4053 277.037 21.9813 276.461 22.728C275.906 23.4747 275.394 24.3707 274.925 25.416C274.455 26.44 274.103 27.5813 273.869 28.84L273.613 25.64L274.829 23.048C275.085 22.536 275.426 21.992 275.853 21.416C276.301 20.8187 276.791 20.2747 277.325 19.784C277.879 19.272 278.455 18.856 279.053 18.536C279.65 18.216 280.226 18.056 280.781 18.056ZM292.479 18.056C293.268 18.056 294.036 18.152 294.783 18.344C295.53 18.536 296.138 18.7813 296.607 19.08C296.244 20.168 296.042 21.32 295.999 22.536C295.786 22.6427 295.54 22.7173 295.263 22.76C295.007 22.8027 294.73 22.824 294.431 22.824C294.431 21.5653 294.25 20.712 293.887 20.264C293.524 19.7947 292.98 19.56 292.255 19.56C291.636 19.56 291.156 19.688 290.815 19.944C290.495 20.1787 290.292 20.4773 290.207 20.84C290.1 21.288 290.164 21.7147 290.399 22.12C290.634 22.5253 290.964 22.9307 291.391 23.336C291.818 23.72 292.266 24.1253 292.735 24.552C293.226 24.9787 293.674 25.448 294.079 25.96C294.484 26.4507 294.783 27.016 294.975 27.656C295.188 28.296 295.21 29.0213 295.039 29.832C294.89 30.6 294.591 31.24 294.143 31.752C293.695 32.264 293.14 32.648 292.479 32.904C291.818 33.16 291.05 33.288 290.175 33.288C289.194 33.288 288.319 33.16 287.551 32.904C286.783 32.6267 286.175 32.3387 285.727 32.04C285.919 31.3573 286.047 30.728 286.111 30.152C286.196 29.576 286.25 29.0427 286.271 28.552C286.762 28.3173 287.274 28.2213 287.807 28.264C287.764 29.3093 287.924 30.1627 288.287 30.824C288.65 31.4853 289.343 31.816 290.367 31.816C291.007 31.816 291.498 31.6987 291.839 31.464C292.202 31.208 292.426 30.888 292.511 30.504C292.618 29.9707 292.5 29.4693 292.159 29C291.839 28.5093 291.402 28.0187 290.847 27.528C290.314 27.016 289.78 26.472 289.247 25.896C288.735 25.2987 288.33 24.6373 288.031 23.912C287.732 23.1867 287.679 22.3547 287.871 21.416C288.02 20.6907 288.287 20.0827 288.671 19.592C289.076 19.1013 289.599 18.728 290.239 18.472C290.879 18.1947 291.626 18.056 292.479 18.056ZM297.252 40.84L300.26 23.752C300.452 22.7493 300.538 22.0347 300.516 21.608C300.516 21.1813 300.367 20.9147 300.068 20.808C299.791 20.7013 299.311 20.648 298.628 20.648C298.628 20.4133 298.639 20.1893 298.66 19.976C298.682 19.7627 298.735 19.5813 298.82 19.432C299.162 19.3893 299.61 19.304 300.164 19.176C300.74 19.0267 301.306 18.856 301.86 18.664C302.415 18.4507 302.842 18.2693 303.14 18.12C303.482 18.2267 303.706 18.4507 303.812 18.792C303.919 19.112 303.919 19.5707 303.812 20.168C303.748 20.5947 303.663 21.0107 303.556 21.416C303.471 21.8213 303.364 22.2267 303.236 22.632C303.108 23.0373 302.959 23.4427 302.788 23.848L302.404 24.808L301.092 32.168C301.199 32.744 301.242 33.3307 301.22 33.928C301.22 34.5467 301.114 35.4533 300.9 36.648L300.164 40.84H297.252ZM300.612 32.84L301.156 31.112C301.476 31.2827 301.839 31.4107 302.244 31.496C302.65 31.5813 303.066 31.624 303.492 31.624C304.815 31.624 305.85 31.1227 306.596 30.12C307.343 29.1173 307.876 27.8267 308.196 26.248C308.58 24.4347 308.676 23.048 308.484 22.088C308.314 21.1067 307.908 20.616 307.268 20.616C306.906 20.616 306.383 20.9573 305.7 21.64C305.039 22.3013 304.367 23.2613 303.684 24.52C303.023 25.7787 302.49 27.2933 302.084 29.064L301.476 31.624L299.972 31.4L301.732 24.584H302.564C302.97 23.496 303.503 22.4507 304.164 21.448C304.847 20.4453 305.604 19.624 306.436 18.984C307.29 18.344 308.164 18.024 309.06 18.024C309.594 18.024 310.052 18.152 310.436 18.408C310.82 18.664 311.119 19.0693 311.332 19.624C311.546 20.1787 311.652 20.8827 311.652 21.736C311.652 22.568 311.535 23.5813 311.3 24.776C310.98 26.4187 310.404 27.88 309.572 29.16C308.74 30.44 307.727 31.4427 306.532 32.168C305.359 32.8933 304.079 33.256 302.692 33.256C302.351 33.256 301.967 33.2133 301.54 33.128C301.135 33.0427 300.826 32.9467 300.612 32.84ZM315.294 33.288C314.59 33.288 314.067 33.096 313.726 32.712C313.384 32.328 313.203 31.7947 313.182 31.112C313.16 30.408 313.278 29.5973 313.534 28.68L314.846 24.072C315.166 22.984 315.347 22.1947 315.39 21.704C315.454 21.2133 315.336 20.904 315.038 20.776C314.76 20.648 314.27 20.584 313.566 20.584C313.544 20.3493 313.544 20.136 313.566 19.944C313.608 19.7307 313.672 19.5387 313.758 19.368C314.099 19.3253 314.504 19.2293 314.974 19.08C315.464 18.9307 315.934 18.76 316.382 18.568C316.83 18.376 317.182 18.2053 317.438 18.056C318.099 18.3333 318.494 18.8027 318.622 19.464C318.771 20.104 318.664 21.0853 318.302 22.408L316.542 28.584C316.243 29.6293 316.115 30.3013 316.158 30.6C316.222 30.8987 316.403 31.048 316.702 31.048C316.915 31.048 317.16 30.9733 317.438 30.824C317.736 30.6747 318.046 30.44 318.366 30.12C318.536 30.2267 318.664 30.3653 318.75 30.536C318.856 30.7067 318.92 30.9093 318.942 31.144C318.323 31.8053 317.704 32.328 317.086 32.712C316.488 33.096 315.891 33.288 315.294 33.288ZM318.078 14.536C317.566 14.536 317.182 14.3653 316.926 14.024C316.691 13.6613 316.627 13.2027 316.734 12.648C316.862 12.0507 317.118 11.5813 317.502 11.24C317.886 10.8773 318.323 10.696 318.814 10.696C319.347 10.696 319.742 10.8773 319.998 11.24C320.254 11.5813 320.318 12.0507 320.19 12.648C320.083 13.2027 319.838 13.6613 319.454 14.024C319.07 14.3653 318.611 14.536 318.078 14.536ZM326.016 18.056C326.357 18.1627 326.571 18.3867 326.656 18.728C326.763 19.048 326.763 19.5067 326.656 20.104C326.571 20.6373 326.4 21.256 326.144 21.96C325.909 22.664 325.611 23.4533 325.248 24.328H325.312L325.856 23.144C326.347 22.1413 326.816 21.256 327.264 20.488C327.733 19.72 328.224 19.1227 328.736 18.696C329.248 18.2693 329.813 18.056 330.432 18.056C331.051 18.056 331.595 18.248 332.064 18.632C331.872 19.2293 331.712 19.848 331.584 20.488C331.456 21.128 331.36 21.7467 331.296 22.344C331.104 22.4293 330.869 22.504 330.592 22.568C330.336 22.6107 330.048 22.6213 329.728 22.6C329.771 21.8533 329.76 21.3627 329.696 21.128C329.632 20.872 329.525 20.744 329.376 20.744C329.163 20.744 328.853 20.9573 328.448 21.384C328.064 21.7893 327.605 22.4933 327.072 23.496C326.731 24.1573 326.315 25.096 325.824 26.312C325.355 27.5067 324.992 28.7867 324.736 30.152L324.192 33H321.248L323.04 23.688C323.232 22.6853 323.328 21.9707 323.328 21.544C323.349 21.1173 323.211 20.8507 322.912 20.744C322.635 20.6373 322.155 20.584 321.472 20.584C321.472 20.3493 321.483 20.1253 321.504 19.912C321.547 19.6987 321.611 19.5173 321.696 19.368C322.037 19.3253 322.485 19.24 323.04 19.112C323.616 18.9627 324.181 18.792 324.736 18.6C325.291 18.3867 325.717 18.2053 326.016 18.056ZM344.087 18.056C344.215 18.0987 344.322 18.2053 344.407 18.376C344.493 18.5253 344.514 18.8133 344.471 19.24C344.45 19.6453 344.343 20.2747 344.151 21.128L342.551 28.296C342.317 29.4693 342.199 30.2267 342.199 30.568C342.221 30.9093 342.402 31.08 342.743 31.08C342.999 31.08 343.255 31.0053 343.511 30.856C343.789 30.7067 344.13 30.4613 344.535 30.12C344.685 30.2693 344.802 30.4293 344.887 30.6C344.973 30.7493 345.047 30.92 345.111 31.112C344.578 31.7093 344.002 32.2213 343.383 32.648C342.765 33.0747 342.103 33.288 341.399 33.288C340.802 33.288 340.354 33.1387 340.055 32.84C339.757 32.5413 339.554 32.168 339.447 31.72C339.362 31.272 339.351 30.8133 339.415 30.344C339.479 29.8533 339.575 29.4267 339.703 29.064C339.789 28.8507 339.895 28.5733 340.023 28.232C340.173 27.8907 340.322 27.5493 340.471 27.208C340.621 26.8667 340.738 26.6107 340.823 26.44L341.975 21.928L342.071 18.344C342.413 18.3653 342.775 18.3547 343.159 18.312C343.543 18.248 343.853 18.1627 344.087 18.056ZM342.551 18.472L342.007 20.2C341.687 20.0293 341.325 19.9013 340.919 19.816C340.514 19.7307 340.098 19.688 339.671 19.688C338.37 19.688 337.335 20.1893 336.567 21.192C335.821 22.1947 335.287 23.4853 334.967 25.064C334.583 26.8773 334.477 28.2747 334.647 29.256C334.839 30.216 335.255 30.696 335.895 30.696C336.279 30.696 336.802 30.3653 337.463 29.704C338.125 29.0213 338.786 28.0507 339.447 26.792C340.13 25.512 340.674 23.9973 341.079 22.248L341.687 19.688L343.191 19.912L341.431 26.728H340.599C340.215 27.7947 339.682 28.84 338.999 29.864C338.317 30.8667 337.549 31.688 336.695 32.328C335.863 32.968 334.999 33.288 334.103 33.288C333.57 33.288 333.111 33.16 332.727 32.904C332.343 32.648 332.045 32.2427 331.831 31.688C331.618 31.1333 331.511 30.4293 331.511 29.576C331.511 28.7227 331.629 27.7093 331.863 26.536C332.205 24.8933 332.781 23.432 333.591 22.152C334.423 20.872 335.426 19.8693 336.599 19.144C337.794 18.4187 339.085 18.056 340.471 18.056C340.834 18.056 341.218 18.0987 341.623 18.184C342.029 18.2693 342.338 18.3653 342.551 18.472ZM356.716 33.288C355.97 33.288 355.436 33.0747 355.116 32.648C354.818 32.2 354.668 31.656 354.668 31.016C354.668 30.376 354.754 29.7573 354.924 29.16C354.988 28.9253 355.074 28.6373 355.18 28.296C355.308 27.9547 355.436 27.624 355.564 27.304C355.692 26.984 355.799 26.7493 355.884 26.6L356.972 20.008C356.887 19.4747 356.866 18.8987 356.908 18.28C356.972 17.64 357.079 16.8507 357.228 15.912C357.399 14.8667 357.484 14.1307 357.484 13.704C357.484 13.2773 357.335 13.0213 357.036 12.936C356.759 12.8507 356.279 12.808 355.596 12.808C355.575 12.5947 355.575 12.3813 355.596 12.168C355.639 11.9333 355.703 11.7413 355.788 11.592C356.13 11.5493 356.578 11.464 357.132 11.336C357.708 11.1867 358.274 11.016 358.828 10.824C359.383 10.6107 359.81 10.4293 360.108 10.28C360.45 10.3867 360.674 10.6107 360.78 10.952C360.887 11.272 360.887 11.7307 360.78 12.328L358.156 27.336C357.964 28.4667 357.826 29.2987 357.74 29.832C357.676 30.3653 357.676 30.7067 357.74 30.856C357.826 31.0053 357.954 31.08 358.124 31.08C358.38 31.08 358.647 31.0053 358.924 30.856C359.202 30.7067 359.543 30.4613 359.948 30.12C360.098 30.2693 360.215 30.4293 360.3 30.6C360.386 30.7493 360.46 30.92 360.524 31.112C359.991 31.7093 359.404 32.2213 358.764 32.648C358.124 33.0747 357.442 33.288 356.716 33.288ZM357.676 18.472L357.132 20.2C356.812 20.0293 356.45 19.9013 356.044 19.816C355.639 19.7307 355.223 19.688 354.796 19.688C353.495 19.688 352.46 20.1893 351.692 21.192C350.946 22.1947 350.412 23.4853 350.092 25.064C349.708 26.8773 349.602 28.2747 349.772 29.256C349.964 30.216 350.38 30.696 351.02 30.696C351.404 30.696 351.927 30.3653 352.588 29.704C353.25 29.0213 353.911 28.0507 354.572 26.792C355.255 25.512 355.799 23.9973 356.204 22.248L356.812 19.688L358.316 19.912L356.556 26.728H355.724C355.34 27.7947 354.807 28.84 354.124 29.864C353.442 30.8667 352.674 31.688 351.82 32.328C350.988 32.968 350.124 33.288 349.228 33.288C348.695 33.288 348.236 33.16 347.852 32.904C347.468 32.648 347.17 32.2427 346.956 31.688C346.743 31.1333 346.636 30.4293 346.636 29.576C346.636 28.7227 346.754 27.7093 346.988 26.536C347.33 24.8933 347.906 23.432 348.716 22.152C349.548 20.872 350.551 19.8693 351.724 19.144C352.919 18.4187 354.21 18.056 355.596 18.056C355.959 18.056 356.343 18.0987 356.748 18.184C357.154 18.2693 357.463 18.3653 357.676 18.472ZM374.65 18.056C374.778 18.0987 374.884 18.2053 374.97 18.376C375.055 18.5253 375.076 18.8133 375.034 19.24C375.012 19.6453 374.906 20.2747 374.714 21.128L373.114 28.296C372.879 29.4693 372.762 30.2267 372.762 30.568C372.783 30.9093 372.964 31.08 373.306 31.08C373.562 31.08 373.818 31.0053 374.074 30.856C374.351 30.7067 374.692 30.4613 375.098 30.12C375.247 30.2693 375.364 30.4293 375.45 30.6C375.535 30.7493 375.61 30.92 375.674 31.112C375.14 31.7093 374.564 32.2213 373.946 32.648C373.327 33.0747 372.666 33.288 371.962 33.288C371.364 33.288 370.916 33.1387 370.618 32.84C370.319 32.5413 370.116 32.168 370.01 31.72C369.924 31.272 369.914 30.8133 369.978 30.344C370.042 29.8533 370.138 29.4267 370.266 29.064C370.351 28.8507 370.458 28.5733 370.586 28.232C370.735 27.8907 370.884 27.5493 371.034 27.208C371.183 26.8667 371.3 26.6107 371.386 26.44L372.538 21.928L372.634 18.344C372.975 18.3653 373.338 18.3547 373.722 18.312C374.106 18.248 374.415 18.1627 374.65 18.056ZM373.114 18.472L372.57 20.2C372.25 20.0293 371.887 19.9013 371.482 19.816C371.076 19.7307 370.66 19.688 370.234 19.688C368.932 19.688 367.898 20.1893 367.13 21.192C366.383 22.1947 365.85 23.4853 365.53 25.064C365.146 26.8773 365.039 28.2747 365.21 29.256C365.402 30.216 365.818 30.696 366.458 30.696C366.842 30.696 367.364 30.3653 368.026 29.704C368.687 29.0213 369.348 28.0507 370.01 26.792C370.692 25.512 371.236 23.9973 371.642 22.248L372.25 19.688L373.754 19.912L371.994 26.728H371.162C370.778 27.7947 370.244 28.84 369.562 29.864C368.879 30.8667 368.111 31.688 367.258 32.328C366.426 32.968 365.562 33.288 364.666 33.288C364.132 33.288 363.674 33.16 363.29 32.904C362.906 32.648 362.607 32.2427 362.394 31.688C362.18 31.1333 362.074 30.4293 362.074 29.576C362.074 28.7227 362.191 27.7093 362.426 26.536C362.767 24.8933 363.343 23.432 364.154 22.152C364.986 20.872 365.988 19.8693 367.162 19.144C368.356 18.4187 369.647 18.056 371.034 18.056C371.396 18.056 371.78 18.0987 372.186 18.184C372.591 18.2693 372.9 18.3653 373.114 18.472Z"
        fill="#37332F" />
    <defs>
        <linearGradient id="paint0_linear_0_1" x1="24" y1="0" x2="24" y2="48" gradientUnits="userSpaceOnUse">
            <stop stop-color="#37332F" />
            <stop offset="1" stop-color="#5A5855" />
        </linearGradient>
        <linearGradient id="paint1_linear_0_1" x1="24" y1="2" x2="24" y2="46" gradientUnits="userSpaceOnUse">
            <stop stop-color="#37332F" />
            <stop offset="1" stop-color="#5A5855" />
        </linearGradient>
    </defs>
</svg>